<svg width="47" height="28" fill="none" xmlns="http://www.w3.org/2000/svg"><g clip-path="url(#clip0_1_997)"><path fill-rule="evenodd" clip-rule="evenodd" d="M23.1691 18.8819C22.2753 18.8298 21.3894 18.6841 20.5261 18.447C20.3766 18.4063 19.7719 18.182 19.6156 18.1073C18.3221 17.5095 17.2125 16.5758 16.4025 15.4035C15.5924 14.2311 15.1114 12.8631 15.0097 11.4417C14.908 10.0204 15.1891 8.59775 15.824 7.322C16.4588 6.04625 17.4241 4.96404 18.6193 4.18808C19.8145 3.41211 21.1958 2.97077 22.6195 2.91002C24.0432 2.84928 25.4571 3.17134 26.714 3.84268C27.971 4.51401 29.0249 5.51007 29.7661 6.7271C30.5073 7.94413 30.9087 9.33763 30.9284 10.7625H33.8093C33.7963 8.84221 33.2749 6.95964 32.2981 5.30631C31.3213 3.65297 29.924 2.28788 28.2484 1.34991C26.5727 0.411932 24.6785 -0.0654488 22.7584 -0.0336669C20.8384 -0.00188496 18.961 0.537925 17.3173 1.53084C15.6736 2.52376 14.3223 3.93435 13.4008 5.61911C12.4792 7.30386 12.0204 9.20265 12.071 11.1223C12.1216 13.042 12.6797 14.914 13.6887 16.5478C14.6976 18.1817 16.1214 19.5192 17.8151 20.4242C18.3946 20.7173 18.994 20.9693 19.6088 21.1784C20.6613 21.47 21.7401 21.6567 22.8294 21.7355C23.1827 21.7355 24.4397 21.7831 24.8066 21.7831H46.8207V18.909H24.861C24.5756 18.909 23.4273 18.9023 23.1691 18.8819ZM24.861 14.3771C24.6503 14.3771 23.5564 14.3771 23.3526 14.3771C22.9463 14.342 22.5425 14.283 22.1432 14.2005C21.8502 14.1255 21.5656 14.0208 21.2939 13.8879C20.7793 13.5978 20.3493 13.1784 20.0463 12.6713C19.7433 12.1642 19.5777 11.5868 19.566 10.9962C19.5543 10.4056 19.6968 9.82208 19.9794 9.30334C20.2621 8.7846 20.6751 8.34853 21.1778 8.03817C21.6804 7.7278 22.2553 7.55388 22.8457 7.53356C23.4361 7.51323 24.0216 7.64722 24.5444 7.92228C25.0672 8.19735 25.5092 8.60399 25.8269 9.10206C26.1445 9.60014 26.3268 10.1724 26.3557 10.7625H29.1211C29.1033 9.66311 28.7936 8.58823 28.2237 7.64792C27.6538 6.70761 26.8443 5.93566 25.878 5.41112C24.9116 4.88658 23.8233 4.6283 22.7243 4.66274C21.6253 4.69717 20.5552 5.02307 19.6236 5.60708C18.6921 6.19108 17.9324 7.0122 17.4225 7.98634C16.9127 8.96048 16.6709 10.0526 16.7219 11.151C16.7729 12.2493 17.115 13.3143 17.713 14.237C18.311 15.1596 19.1435 15.9068 20.1252 16.4019C20.462 16.579 20.8175 16.718 21.1851 16.8164C21.8281 16.9697 22.4826 17.0697 23.142 17.1153C23.373 17.1153 24.5008 17.1153 24.7319 17.1153H46.7935V14.3771H24.861ZM10.3208 21.7695H7.41956V2.88089H3.17981V3.79644e-05H10.3208V21.7695ZM0 4.35529V7.14103H3.17981V21.7695H5.97234V4.35529H0Z" fill="#E60000"/><path fill-rule="evenodd" clip-rule="evenodd" d="M39.5234 0.20381C39.2744 0.202019 39.0276 0.249278 38.7969 0.342893C38.5662 0.436507 38.3562 0.574644 38.179 0.749411C38.0017 0.924179 37.8605 1.13216 37.7636 1.36147C37.6667 1.59078 37.6159 1.83693 37.6141 2.08588C37.6141 2.59224 37.8153 3.07786 38.1733 3.43592C38.5314 3.79397 39.017 3.99512 39.5234 3.99512C40.0297 3.99512 40.5154 3.79397 40.8734 3.43592C41.2315 3.07786 41.4326 2.59224 41.4326 2.08588C41.4327 1.83642 41.3831 1.58944 41.2868 1.35931C41.1905 1.12918 41.0495 0.920479 40.8718 0.745353C40.6942 0.570226 40.4835 0.432165 40.252 0.339197C40.0205 0.246228 39.7728 0.200207 39.5234 0.20381ZM39.5234 3.68258C39.2098 3.67989 38.904 3.58454 38.6445 3.40852C38.385 3.23249 38.1833 2.98366 38.0649 2.69331C37.9464 2.40296 37.9165 2.08406 37.9788 1.77674C38.0411 1.46941 38.1929 1.18738 38.4151 0.966111C38.6373 0.744846 38.92 0.594233 39.2276 0.533215C39.5352 0.472196 39.854 0.503498 40.1438 0.623184C40.4336 0.74287 40.6816 0.945592 40.8566 1.20586C41.0315 1.46612 41.1255 1.7723 41.1269 2.08588C41.1278 2.29639 41.0869 2.50498 41.0065 2.69955C40.9262 2.89413 40.808 3.07081 40.6588 3.21935C40.5097 3.36788 40.3325 3.48532 40.1376 3.56484C39.9427 3.64436 39.7339 3.68438 39.5234 3.68258Z" fill="#E60000"/><path fill-rule="evenodd" clip-rule="evenodd" d="M40.2504 2.59538C40.2504 2.38476 40.2164 2.18771 39.9786 2.11298C40.0739 2.09128 40.1588 2.03766 40.2194 1.96104C40.2799 1.88441 40.3125 1.78938 40.3116 1.69172C40.3112 1.61304 40.2942 1.53533 40.2616 1.46371C40.229 1.39209 40.1816 1.32818 40.1226 1.27619C40.0635 1.2242 39.9941 1.1853 39.919 1.16206C39.8438 1.13882 39.7646 1.13177 39.6865 1.14137H38.8575V3.02343H39.2041V2.24887H39.4758C39.8699 2.24887 39.9039 2.43232 39.9039 2.59538C39.9039 2.91472 39.9039 2.97587 39.9786 3.02343H40.3252C40.2504 2.94869 40.2776 2.88075 40.2504 2.59538ZM39.6117 1.97709H39.2041V1.38597H39.5506C39.7952 1.38597 39.9583 1.46071 39.9583 1.69172C39.9583 1.80722 39.9039 1.97709 39.6117 1.97709Z" fill="#E60000"/><path d="M3.70292 25.2006H3.17975V24.3921H4.59979V27.898H3.70292V25.2006Z" fill="#E60000"/><path d="M7.80006 27.7419C7.52142 27.9221 7.19406 28.0122 6.86243 28.0001C6.39077 27.9715 5.9478 27.764 5.62394 27.4199C5.30009 27.0758 5.11975 26.6211 5.11975 26.1486C5.11975 25.676 5.30009 25.2213 5.62394 24.8772C5.9478 24.5332 6.39077 24.3256 6.86243 24.2971C7.20032 24.292 7.53186 24.3891 7.81365 24.5756V25.5948C7.71662 25.4678 7.59245 25.3641 7.45022 25.2912C7.30798 25.2183 7.15127 25.1781 6.99152 25.1735C6.86582 25.1766 6.74211 25.2057 6.6282 25.2589C6.51428 25.3122 6.41263 25.3884 6.32965 25.4829C6.24667 25.5774 6.18415 25.688 6.14604 25.8078C6.10794 25.9277 6.09507 26.0541 6.10824 26.1791C6.09774 26.3006 6.1129 26.423 6.15275 26.5382C6.19259 26.6534 6.25622 26.759 6.33952 26.8481C6.42281 26.9372 6.5239 27.0077 6.63623 27.0552C6.74855 27.1026 6.86961 27.1259 6.99152 27.1236C7.14706 27.1184 7.29997 27.0821 7.4412 27.0167C7.58243 26.9514 7.70908 26.8583 7.81365 26.7431L7.80006 27.7419Z" fill="#E60000"/><path d="M8.71729 25.3909C8.81807 25.3909 8.9166 25.4208 9.0004 25.4768C9.0842 25.5327 9.14951 25.6123 9.18808 25.7054C9.22665 25.7986 9.23674 25.901 9.21708 25.9999C9.19742 26.0987 9.14888 26.1895 9.07762 26.2608C9.00635 26.3321 8.91555 26.3806 8.8167 26.4002C8.71785 26.4199 8.61539 26.4098 8.52228 26.3713C8.42916 26.3327 8.34958 26.2674 8.29358 26.1836C8.23759 26.0998 8.2077 26.0012 8.2077 25.9005C8.20946 25.7659 8.26371 25.6373 8.3589 25.5421C8.45409 25.4469 8.58268 25.3926 8.71729 25.3909ZM8.71729 26.9672C8.81807 26.9672 8.9166 26.9971 9.0004 27.0531C9.0842 27.1091 9.14951 27.1887 9.18808 27.2818C9.22665 27.3749 9.23674 27.4773 9.21708 27.5762C9.19742 27.675 9.14888 27.7658 9.07762 27.8371C9.00635 27.9084 8.91555 27.9569 8.8167 27.9766C8.71785 27.9962 8.61539 27.9861 8.52228 27.9476C8.42916 27.909 8.34958 27.8437 8.29358 27.7599C8.23759 27.6761 8.2077 27.5776 8.2077 27.4768C8.20946 27.3422 8.26371 27.2136 8.3589 27.1184C8.45409 27.0232 8.58268 26.9689 8.71729 26.9672Z" fill="#E60000"/><path d="M11.1837 27.4089C10.5858 27.4089 9.54626 27.239 9.54626 26.0092C9.54645 25.8051 9.59107 25.6034 9.67703 25.4183C9.76299 25.2331 9.88822 25.0689 10.044 24.937C10.1998 24.8051 10.3825 24.7087 10.5793 24.6545C10.7761 24.6003 10.9824 24.5896 11.1837 24.6232V24.2427H12.1485V24.6232C12.3477 24.59 12.5516 24.6 12.7465 24.6526C12.9414 24.7053 13.1227 24.7992 13.278 24.9282C13.4334 25.0571 13.5591 25.2179 13.6468 25.3998C13.7345 25.5816 13.7819 25.7802 13.786 25.9821C13.786 27.2119 12.7465 27.3885 12.1485 27.3817V27.8709H11.1837V27.4089ZM11.2721 25.3026C11.0865 25.3026 10.9084 25.3763 10.7772 25.5076C10.646 25.6388 10.5722 25.8168 10.5722 26.0024C10.5722 26.188 10.646 26.3661 10.7772 26.4973C10.9084 26.6285 11.0865 26.7023 11.2721 26.7023V25.3026ZM12.101 26.7023C12.2866 26.7023 12.4646 26.6285 12.5958 26.4973C12.7271 26.3661 12.8008 26.188 12.8008 26.0024C12.8008 25.8168 12.7271 25.6388 12.5958 25.5076C12.4646 25.3763 12.2866 25.3026 12.101 25.3026V26.7023Z" fill="#E60000"/><path d="M14.1121 24.3921H15.5729C15.7273 24.3921 15.8801 24.4225 16.0228 24.4816C16.1654 24.5406 16.2949 24.6272 16.4041 24.7364C16.5132 24.8455 16.5998 24.9751 16.6589 25.1177C16.718 25.2603 16.7484 25.4132 16.7484 25.5675C16.7484 25.7219 16.718 25.8747 16.6589 26.0174C16.5998 26.16 16.5132 26.2895 16.4041 26.3987C16.2949 26.5078 16.1654 26.5944 16.0228 26.6535C15.8801 26.7126 15.7273 26.743 15.5729 26.743H15.0837V27.898H14.1121V24.3921ZM15.0837 25.982H15.3487C15.7768 25.982 15.8243 25.7238 15.8243 25.5743C15.8243 25.4248 15.7632 25.1734 15.3487 25.1734H15.0701L15.0837 25.982Z" fill="#E60000"/><path d="M17.7812 24.3921H18.9566L20.1932 27.898H19.1536L18.9566 27.2933H17.7812L17.5841 27.898H16.5446L17.7812 24.3921ZM17.9714 26.5256H18.746L18.3519 25.2278L17.9714 26.5256Z" fill="#E60000"/><path d="M20.4513 24.3921H21.4161V25.6559H22.5983V24.3921H23.57V27.898H22.5983V26.4984H21.4161V27.898H20.4513V24.3921Z" fill="#E60000"/><path d="M25.8122 26.5323C25.5877 26.5688 25.3603 26.5847 25.1328 26.5799C23.9641 26.5799 23.9098 25.9888 23.9098 25.4113V24.3921H24.8814V25.3025C24.8814 25.5743 24.8814 25.8325 25.4182 25.8325C25.4997 25.8325 25.5948 25.8325 25.7851 25.8325V24.4736H26.7567V27.9796H25.8122V26.5323Z" fill="#E60000"/><path d="M28.2582 24.3921H29.4404L30.6702 27.898H29.6171L29.4268 27.2933H28.2582L28.0679 27.898H27.0148L28.2582 24.3921ZM28.4552 26.5256H29.2434L28.8493 25.2278L28.4552 26.5256Z" fill="#E60000"/><path d="M31.7982 24.3921V26.4984L33.157 24.3921H34.1083V27.898H33.157V25.7986L31.7982 27.898H30.8469V24.3921H31.7982ZM33.5172 23.6447C33.4165 23.8283 33.2647 23.9788 33.0801 24.0777C32.8956 24.1766 32.6862 24.2197 32.4776 24.2019C32.2691 24.2189 32.0601 24.1753 31.8757 24.0765C31.6913 23.9777 31.5393 23.8278 31.438 23.6447L31.9952 23.4341C32.0421 23.5222 32.1121 23.5959 32.1977 23.6473C32.2832 23.6987 32.3812 23.7258 32.481 23.7258C32.5808 23.7258 32.6788 23.6987 32.7643 23.6473C32.8499 23.5959 32.9199 23.5222 32.9668 23.4341L33.5172 23.6447Z" fill="#E60000"/><path d="M34.5159 24.6233C34.8703 24.4145 35.2732 24.302 35.6846 24.2971C36.4659 24.2971 37.0435 24.698 37.0435 25.2891C37.043 25.4628 36.9885 25.632 36.8874 25.7733C36.7863 25.9145 36.6438 26.0208 36.4795 26.0773C36.6623 26.1292 36.8221 26.2413 36.9331 26.3955C37.0441 26.5496 37.0998 26.7368 37.091 26.9266C37.091 27.606 36.4863 28.0001 35.7321 28.0001C35.2283 28.0092 34.7409 27.8215 34.3732 27.4769L34.7741 26.7975C34.9998 27.0239 35.2982 27.1634 35.6166 27.1916C36.0311 27.1916 36.1262 26.9538 36.1262 26.8111C36.1262 26.6684 35.9835 26.4442 35.5691 26.4442H34.9847V25.7647H35.5351C35.9767 25.7647 36.0515 25.5609 36.0515 25.4046C36.0515 25.2483 35.8476 25.0513 35.5555 25.0513C35.309 25.06 35.0714 25.1455 34.876 25.2959L34.5159 24.6233Z" fill="#E60000"/><path d="M38.4023 24.3921V26.4984L39.7612 24.3921H40.7125V27.898H39.7612V25.7985L38.4023 27.898H37.4511V24.3921H38.4023Z" fill="#E60000"/><path d="M41.0862 24.3921H42.0578V25.6559H43.24V24.3921H44.2116V27.898H43.24V26.4984H42.0578V27.898H41.0862V24.3921Z" fill="#E60000"/><path d="M44.7008 24.3921H46.7799V25.2346H45.6656V27.898H44.7008V24.3921Z" fill="#E60000"/></g><defs><clipPath id="clip0_1_997"><rect width="46.8275" height="28" fill="white"/></clipPath></defs></svg>