<svg width="170" height="170" fill="none" xmlns="http://www.w3.org/2000/svg"><rect y="45" width="5" height="5" fill="#E5E5E5"/><rect x="15" y="45" width="5" height="5" fill="#E5E5E5"/><rect x="30" y="45" width="5" height="5" fill="#E5E5E5"/><rect y="60" width="5" height="5" fill="#E5E5E5"/><rect x="15" y="60" width="5" height="5" fill="#E5E5E5"/><rect x="30" y="60" width="5" height="5" fill="#E5E5E5"/><rect y="75" width="5" height="5" fill="#E5E5E5"/><rect x="15" y="75" width="5" height="5" fill="#E5E5E5"/><rect x="30" y="75" width="5" height="5" fill="#E5E5E5"/><rect x="90" y="45" width="5" height="5" fill="#E5E5E5"/><rect x="105" y="45" width="5" height="5" fill="#E5E5E5"/><rect x="120" y="45" width="5" height="5" fill="#E5E5E5"/><rect x="90" y="60" width="5" height="5" fill="#E5E5E5"/><rect x="105" y="60" width="5" height="5" fill="#E5E5E5"/><rect x="120" y="60" width="5" height="5" fill="#E5E5E5"/><rect x="90" y="75" width="5" height="5" fill="#E5E5E5"/><rect x="105" y="75" width="5" height="5" fill="#E5E5E5"/><rect x="120" y="75" width="5" height="5" fill="#E5E5E5"/><rect x="45" y="45" width="5" height="5" fill="#E5E5E5"/><rect x="60" y="45" width="5" height="5" fill="#E5E5E5"/><rect x="75" y="45" width="5" height="5" fill="#E5E5E5"/><rect x="45" y="60" width="5" height="5" fill="#E5E5E5"/><rect x="60" y="60" width="5" height="5" fill="#E5E5E5"/><rect x="75" y="60" width="5" height="5" fill="#E5E5E5"/><rect x="45" y="75" width="5" height="5" fill="#E5E5E5"/><rect x="60" y="75" width="5" height="5" fill="#E5E5E5"/><rect x="75" y="75" width="5" height="5" fill="#E5E5E5"/><rect x="135" y="45" width="5" height="5" fill="#E5E5E5"/><rect x="150" y="45" width="5" height="5" fill="#E5E5E5"/><rect x="165" y="45" width="5" height="5" fill="#E5E5E5"/><rect x="135" y="60" width="5" height="5" fill="#E5E5E5"/><rect x="150" y="60" width="5" height="5" fill="#E5E5E5"/><rect x="165" y="60" width="5" height="5" fill="#E5E5E5"/><rect x="135" y="75" width="5" height="5" fill="#E5E5E5"/><rect x="150" y="75" width="5" height="5" fill="#E5E5E5"/><rect x="165" y="75" width="5" height="5" fill="#E5E5E5"/><rect width="5" height="5" fill="#E5E5E5"/><rect x="15" width="5" height="5" fill="#E5E5E5"/><rect x="30" width="5" height="5" fill="#E5E5E5"/><rect y="15" width="5" height="5" fill="#E5E5E5"/><rect x="15" y="15" width="5" height="5" fill="#E5E5E5"/><rect x="30" y="15" width="5" height="5" fill="#E5E5E5"/><rect y="30" width="5" height="5" fill="#E5E5E5"/><rect x="15" y="30" width="5" height="5" fill="#E5E5E5"/><rect x="30" y="30" width="5" height="5" fill="#E5E5E5"/><rect x="90" width="5" height="5" fill="#E5E5E5"/><rect x="105" width="5" height="5" fill="#E5E5E5"/><rect x="120" width="5" height="5" fill="#E5E5E5"/><rect x="90" y="15" width="5" height="5" fill="#E5E5E5"/><rect x="105" y="15" width="5" height="5" fill="#E5E5E5"/><rect x="120" y="15" width="5" height="5" fill="#E5E5E5"/><rect x="90" y="30" width="5" height="5" fill="#E5E5E5"/><rect x="105" y="30" width="5" height="5" fill="#E5E5E5"/><rect x="120" y="30" width="5" height="5" fill="#E5E5E5"/><rect x="45" width="5" height="5" fill="#E5E5E5"/><rect x="60" width="5" height="5" fill="#E5E5E5"/><rect x="75" width="5" height="5" fill="#E5E5E5"/><rect x="45" y="15" width="5" height="5" fill="#E5E5E5"/><rect x="60" y="15" width="5" height="5" fill="#E5E5E5"/><rect x="75" y="15" width="5" height="5" fill="#E5E5E5"/><rect x="45" y="30" width="5" height="5" fill="#E5E5E5"/><rect x="60" y="30" width="5" height="5" fill="#E5E5E5"/><rect x="75" y="30" width="5" height="5" fill="#E5E5E5"/><rect x="135" width="5" height="5" fill="#E5E5E5"/><rect x="150" width="5" height="5" fill="#E5E5E5"/><rect x="165" width="5" height="5" fill="#E5E5E5"/><rect x="135" y="15" width="5" height="5" fill="#E5E5E5"/><rect x="150" y="15" width="5" height="5" fill="#E5E5E5"/><rect x="165" y="15" width="5" height="5" fill="#E5E5E5"/><rect x="135" y="30" width="5" height="5" fill="#E5E5E5"/><rect x="150" y="30" width="5" height="5" fill="#E5E5E5"/><rect x="165" y="30" width="5" height="5" fill="#E5E5E5"/><rect y="135" width="5" height="5" fill="#E5E5E5"/><rect x="15" y="135" width="5" height="5" fill="#E5E5E5"/><rect x="30" y="135" width="5" height="5" fill="#E5E5E5"/><rect y="150" width="5" height="5" fill="#E5E5E5"/><rect x="15" y="150" width="5" height="5" fill="#E5E5E5"/><rect x="30" y="150" width="5" height="5" fill="#E5E5E5"/><rect y="165" width="5" height="5" fill="#E5E5E5"/><rect x="15" y="165" width="5" height="5" fill="#E5E5E5"/><rect x="30" y="165" width="5" height="5" fill="#E5E5E5"/><rect x="90" y="135" width="5" height="5" fill="#E5E5E5"/><rect x="105" y="135" width="5" height="5" fill="#E5E5E5"/><rect x="120" y="135" width="5" height="5" fill="#E5E5E5"/><rect x="90" y="150" width="5" height="5" fill="#E5E5E5"/><rect x="105" y="150" width="5" height="5" fill="#E5E5E5"/><rect x="120" y="150" width="5" height="5" fill="#E5E5E5"/><rect x="90" y="165" width="5" height="5" fill="#E5E5E5"/><rect x="105" y="165" width="5" height="5" fill="#E5E5E5"/><rect x="120" y="165" width="5" height="5" fill="#E5E5E5"/><rect x="45" y="135" width="5" height="5" fill="#E5E5E5"/><rect x="60" y="135" width="5" height="5" fill="#E5E5E5"/><rect x="75" y="135" width="5" height="5" fill="#E5E5E5"/><rect x="45" y="150" width="5" height="5" fill="#E5E5E5"/><rect x="60" y="150" width="5" height="5" fill="#E5E5E5"/><rect x="75" y="150" width="5" height="5" fill="#E5E5E5"/><rect x="45" y="165" width="5" height="5" fill="#E5E5E5"/><rect x="60" y="165" width="5" height="5" fill="#E5E5E5"/><rect x="75" y="165" width="5" height="5" fill="#E5E5E5"/><rect x="135" y="135" width="5" height="5" fill="#E5E5E5"/><rect x="150" y="135" width="5" height="5" fill="#E5E5E5"/><rect x="165" y="135" width="5" height="5" fill="#E5E5E5"/><rect x="135" y="150" width="5" height="5" fill="#E5E5E5"/><rect x="150" y="150" width="5" height="5" fill="#E5E5E5"/><rect x="165" y="150" width="5" height="5" fill="#E5E5E5"/><rect x="135" y="165" width="5" height="5" fill="#E5E5E5"/><rect x="150" y="165" width="5" height="5" fill="#E5E5E5"/><rect x="165" y="165" width="5" height="5" fill="#E5E5E5"/><rect y="90" width="5" height="5" fill="#E5E5E5"/><rect x="15" y="90" width="5" height="5" fill="#E5E5E5"/><rect x="30" y="90" width="5" height="5" fill="#E5E5E5"/><rect y="105" width="5" height="5" fill="#E5E5E5"/><rect x="15" y="105" width="5" height="5" fill="#E5E5E5"/><rect x="30" y="105" width="5" height="5" fill="#E5E5E5"/><rect y="120" width="5" height="5" fill="#E5E5E5"/><rect x="15" y="120" width="5" height="5" fill="#E5E5E5"/><rect x="30" y="120" width="5" height="5" fill="#E5E5E5"/><rect x="90" y="90" width="5" height="5" fill="#E5E5E5"/><rect x="105" y="90" width="5" height="5" fill="#E5E5E5"/><rect x="120" y="90" width="5" height="5" fill="#E5E5E5"/><rect x="90" y="105" width="5" height="5" fill="#E5E5E5"/><rect x="105" y="105" width="5" height="5" fill="#E5E5E5"/><rect x="120" y="105" width="5" height="5" fill="#E5E5E5"/><rect x="90" y="120" width="5" height="5" fill="#E5E5E5"/><rect x="105" y="120" width="5" height="5" fill="#E5E5E5"/><rect x="120" y="120" width="5" height="5" fill="#E5E5E5"/><rect x="45" y="90" width="5" height="5" fill="#E5E5E5"/><rect x="60" y="90" width="5" height="5" fill="#E5E5E5"/><rect x="75" y="90" width="5" height="5" fill="#E5E5E5"/><rect x="45" y="105" width="5" height="5" fill="#E5E5E5"/><rect x="60" y="105" width="5" height="5" fill="#E5E5E5"/><rect x="75" y="105" width="5" height="5" fill="#E5E5E5"/><rect x="45" y="120" width="5" height="5" fill="#E5E5E5"/><rect x="60" y="120" width="5" height="5" fill="#E5E5E5"/><rect x="75" y="120" width="5" height="5" fill="#E5E5E5"/><rect x="135" y="90" width="5" height="5" fill="#E5E5E5"/><rect x="150" y="90" width="5" height="5" fill="#E5E5E5"/><rect x="165" y="90" width="5" height="5" fill="#E5E5E5"/><rect x="135" y="105" width="5" height="5" fill="#E5E5E5"/><rect x="150" y="105" width="5" height="5" fill="#E5E5E5"/><rect x="165" y="105" width="5" height="5" fill="#E5E5E5"/><rect x="135" y="120" width="5" height="5" fill="#E5E5E5"/><rect x="150" y="120" width="5" height="5" fill="#E5E5E5"/><rect x="165" y="120" width="5" height="5" fill="#E5E5E5"/></svg>