<svg width="68" height="146" fill="none" xmlns="http://www.w3.org/2000/svg"><rect x="39" y="146" width="3" height="3" transform="rotate(-90 39 146)" fill="#FFDADA"/><rect x="39" y="133" width="3" height="3" transform="rotate(-90 39 133)" fill="#FFDADA"/><rect x="39" y="120" width="3" height="3" transform="rotate(-90 39 120)" fill="#FFDADA"/><rect x="52" y="146" width="3" height="3" transform="rotate(-90 52 146)" fill="#FFDADA"/><rect x="52" y="133" width="3" height="3" transform="rotate(-90 52 133)" fill="#FFDADA"/><rect x="52" y="120" width="3" height="3" transform="rotate(-90 52 120)" fill="#FFDADA"/><rect x="65" y="146" width="3" height="3" transform="rotate(-90 65 146)" fill="#FFDADA"/><rect x="65" y="133" width="3" height="3" transform="rotate(-90 65 133)" fill="#FFDADA"/><rect x="65" y="120" width="3" height="3" transform="rotate(-90 65 120)" fill="#FFDADA"/><rect x="39" y="68" width="3" height="3" transform="rotate(-90 39 68)" fill="#FFDADA"/><rect x="39" y="55" width="3" height="3" transform="rotate(-90 39 55)" fill="#FFDADA"/><rect x="39" y="42" width="3" height="3" transform="rotate(-90 39 42)" fill="#FFDADA"/><rect x="52" y="68" width="3" height="3" transform="rotate(-90 52 68)" fill="#FFDADA"/><rect x="52" y="55" width="3" height="3" transform="rotate(-90 52 55)" fill="#FFDADA"/><rect x="52" y="42" width="3" height="3" transform="rotate(-90 52 42)" fill="#FFDADA"/><rect x="65" y="68" width="3" height="3" transform="rotate(-90 65 68)" fill="#FFDADA"/><rect x="65" y="55" width="3" height="3" transform="rotate(-90 65 55)" fill="#FFDADA"/><rect x="65" y="42" width="3" height="3" transform="rotate(-90 65 42)" fill="#FFDADA"/><rect x="39" y="107" width="3" height="3" transform="rotate(-90 39 107)" fill="#FFDADA"/><rect x="39" y="94" width="3" height="3" transform="rotate(-90 39 94)" fill="#FFDADA"/><rect x="39" y="81" width="3" height="3" transform="rotate(-90 39 81)" fill="#FFDADA"/><rect x="52" y="107" width="3" height="3" transform="rotate(-90 52 107)" fill="#FFDADA"/><rect x="52" y="94" width="3" height="3" transform="rotate(-90 52 94)" fill="#FFDADA"/><rect x="52" y="81" width="3" height="3" transform="rotate(-90 52 81)" fill="#FFDADA"/><rect x="65" y="107" width="3" height="3" transform="rotate(-90 65 107)" fill="#FFDADA"/><rect x="65" y="94" width="3" height="3" transform="rotate(-90 65 94)" fill="#FFDADA"/><rect x="65" y="81" width="3" height="3" transform="rotate(-90 65 81)" fill="#FFDADA"/><rect x="39" y="29" width="3" height="3" transform="rotate(-90 39 29)" fill="white"/><rect x="39" y="16" width="3" height="3" transform="rotate(-90 39 16)" fill="white"/><rect x="39" y="3" width="3" height="3" transform="rotate(-90 39 3)" fill="white"/><rect x="52" y="29" width="3" height="3" transform="rotate(-90 52 29)" fill="white"/><rect x="52" y="16" width="3" height="3" transform="rotate(-90 52 16)" fill="white"/><rect x="52" y="3" width="3" height="3" transform="rotate(-90 52 3)" fill="white"/><rect x="65" y="29" width="3" height="3" transform="rotate(-90 65 29)" fill="white"/><rect x="65" y="16" width="3" height="3" transform="rotate(-90 65 16)" fill="white"/><rect x="65" y="3" width="3" height="3" transform="rotate(-90 65 3)" fill="white"/><rect y="146" width="3" height="3" transform="rotate(-90 0 146)" fill="#FFDADA"/><rect y="133" width="3" height="3" transform="rotate(-90 0 133)" fill="#FFDADA"/><rect y="120" width="3" height="3" transform="rotate(-90 0 120)" fill="#FFDADA"/><rect x="13" y="146" width="3" height="3" transform="rotate(-90 13 146)" fill="#FFDADA"/><rect x="13" y="133" width="3" height="3" transform="rotate(-90 13 133)" fill="#FFDADA"/><rect x="13" y="120" width="3" height="3" transform="rotate(-90 13 120)" fill="#FFDADA"/><rect x="26" y="146" width="3" height="3" transform="rotate(-90 26 146)" fill="#FFDADA"/><rect x="26" y="133" width="3" height="3" transform="rotate(-90 26 133)" fill="#FFDADA"/><rect x="26" y="120" width="3" height="3" transform="rotate(-90 26 120)" fill="#FFDADA"/><rect y="68" width="3" height="3" transform="rotate(-90 0 68)" fill="#FFDADA"/><rect y="55" width="3" height="3" transform="rotate(-90 0 55)" fill="#FFDADA"/><rect y="42" width="3" height="3" transform="rotate(-90 0 42)" fill="#FFDADA"/><rect x="13" y="68" width="3" height="3" transform="rotate(-90 13 68)" fill="#FFDADA"/><rect x="13" y="55" width="3" height="3" transform="rotate(-90 13 55)" fill="#FFDADA"/><rect x="13" y="42" width="3" height="3" transform="rotate(-90 13 42)" fill="#FFDADA"/><rect x="26" y="68" width="3" height="3" transform="rotate(-90 26 68)" fill="#FFDADA"/><rect x="26" y="55" width="3" height="3" transform="rotate(-90 26 55)" fill="#FFDADA"/><rect x="26" y="42" width="3" height="3" transform="rotate(-90 26 42)" fill="#FFDADA"/><rect y="107" width="3" height="3" transform="rotate(-90 0 107)" fill="#FFDADA"/><rect y="94" width="3" height="3" transform="rotate(-90 0 94)" fill="#FFDADA"/><rect y="81" width="3" height="3" transform="rotate(-90 0 81)" fill="#FFDADA"/><rect x="13" y="107" width="3" height="3" transform="rotate(-90 13 107)" fill="#FFDADA"/><rect x="13" y="94" width="3" height="3" transform="rotate(-90 13 94)" fill="#FFDADA"/><rect x="13" y="81" width="3" height="3" transform="rotate(-90 13 81)" fill="#FFDADA"/><rect x="26" y="107" width="3" height="3" transform="rotate(-90 26 107)" fill="#FFDADA"/><rect x="26" y="94" width="3" height="3" transform="rotate(-90 26 94)" fill="#FFDADA"/><rect x="26" y="81" width="3" height="3" transform="rotate(-90 26 81)" fill="#FFDADA"/><rect y="29" width="3" height="3" transform="rotate(-90 0 29)" fill="white"/><rect y="16" width="3" height="3" transform="rotate(-90 0 16)" fill="white"/><rect y="3" width="3" height="3" transform="rotate(-90 0 3)" fill="white"/><rect x="13" y="29" width="3" height="3" transform="rotate(-90 13 29)" fill="white"/><rect x="13" y="16" width="3" height="3" transform="rotate(-90 13 16)" fill="white"/><rect x="13" y="3" width="3" height="3" transform="rotate(-90 13 3)" fill="white"/><rect x="26" y="29" width="3" height="3" transform="rotate(-90 26 29)" fill="white"/><rect x="26" y="16" width="3" height="3" transform="rotate(-90 26 16)" fill="white"/><rect x="26" y="3" width="3" height="3" transform="rotate(-90 26 3)" fill="white"/></svg>