<svg width="94" height="85" fill="none" xmlns="http://www.w3.org/2000/svg"><rect x="94" y="58" width="4" height="4" transform="rotate(-180 94 58)" fill="#FFDADA"/><rect x="85" y="58" width="4" height="4" transform="rotate(-180 85 58)" fill="#FFDADA"/><rect x="76" y="58" width="4" height="4" transform="rotate(-180 76 58)" fill="#FFDADA"/><rect x="67" y="58" width="4" height="4" transform="rotate(-180 67 58)" fill="#FFDADA"/><rect x="58" y="58" width="4" height="4" transform="rotate(-180 58 58)" fill="#FFDADA"/><rect x="49" y="58" width="4" height="4" transform="rotate(-180 49 58)" fill="#FFDADA"/><rect x="40" y="58" width="4" height="4" transform="rotate(-180 40 58)" fill="#FFDADA"/><rect x="31" y="58" width="4" height="4" transform="rotate(-180 31 58)" fill="#FFDADA"/><rect x="22" y="58" width="4" height="4" transform="rotate(-180 22 58)" fill="#FFDADA"/><rect x="13" y="58" width="4" height="4" transform="rotate(-180 13 58)" fill="#FFDADA"/><rect x="4" y="58" width="4" height="4" transform="rotate(-180 4 58)" fill="#FFDADA"/><rect x="94" y="22" width="4" height="4" transform="rotate(-180 94 22)" fill="#FFDADA"/><rect x="85" y="22" width="4" height="4" transform="rotate(-180 85 22)" fill="#FFDADA"/><rect x="76" y="22" width="4" height="4" transform="rotate(-180 76 22)" fill="#FFDADA"/><rect x="67" y="22" width="4" height="4" transform="rotate(-180 67 22)" fill="#FFDADA"/><rect x="58" y="22" width="4" height="4" transform="rotate(-180 58 22)" fill="#FFDADA"/><rect x="49" y="22" width="4" height="4" transform="rotate(-180 49 22)" fill="#FFDADA"/><rect x="40" y="22" width="4" height="4" transform="rotate(-180 40 22)" fill="#FFDADA"/><rect x="31" y="22" width="4" height="4" transform="rotate(-180 31 22)" fill="#FFDADA"/><rect x="22" y="22" width="4" height="4" transform="rotate(-180 22 22)" fill="#FFDADA"/><rect x="13" y="22" width="4" height="4" transform="rotate(-180 13 22)" fill="#FFDADA"/><rect x="4" y="22" width="4" height="4" transform="rotate(-180 4 22)" fill="#FFDADA"/><rect x="94" y="49" width="4" height="4" transform="rotate(-180 94 49)" fill="#FFDADA"/><rect x="85" y="49" width="4" height="4" transform="rotate(-180 85 49)" fill="#FFDADA"/><rect x="76" y="49" width="4" height="4" transform="rotate(-180 76 49)" fill="#FFDADA"/><rect x="67" y="49" width="4" height="4" transform="rotate(-180 67 49)" fill="#FFDADA"/><rect x="58" y="49" width="4" height="4" transform="rotate(-180 58 49)" fill="#FFDADA"/><rect x="49" y="49" width="4" height="4" transform="rotate(-180 49 49)" fill="#FFDADA"/><rect x="40" y="49" width="4" height="4" transform="rotate(-180 40 49)" fill="#FFDADA"/><rect x="31" y="49" width="4" height="4" transform="rotate(-180 31 49)" fill="#FFDADA"/><rect x="22" y="49" width="4" height="4" transform="rotate(-180 22 49)" fill="#FFDADA"/><rect x="13" y="49" width="4" height="4" transform="rotate(-180 13 49)" fill="#FFDADA"/><rect x="4" y="49" width="4" height="4" transform="rotate(-180 4 49)" fill="#FFDADA"/><rect x="94" y="13" width="4" height="4" transform="rotate(-180 94 13)" fill="#FFDADA"/><rect x="85" y="13" width="4" height="4" transform="rotate(-180 85 13)" fill="#FFDADA"/><rect x="76" y="13" width="4" height="4" transform="rotate(-180 76 13)" fill="#FFDADA"/><rect x="67" y="13" width="4" height="4" transform="rotate(-180 67 13)" fill="#FFDADA"/><rect x="58" y="13" width="4" height="4" transform="rotate(-180 58 13)" fill="#FFDADA"/><rect x="49" y="13" width="4" height="4" transform="rotate(-180 49 13)" fill="#FFDADA"/><rect x="40" y="13" width="4" height="4" transform="rotate(-180 40 13)" fill="#FFDADA"/><rect x="31" y="13" width="4" height="4" transform="rotate(-180 31 13)" fill="#FFDADA"/><rect x="22" y="13" width="4" height="4" transform="rotate(-180 22 13)" fill="#FFDADA"/><rect x="13" y="13" width="4" height="4" transform="rotate(-180 13 13)" fill="#FFDADA"/><rect x="4" y="13" width="4" height="4" transform="rotate(-180 4 13)" fill="#FFDADA"/><rect x="94" y="40" width="4" height="4" transform="rotate(-180 94 40)" fill="#FFDADA"/><rect x="85" y="40" width="4" height="4" transform="rotate(-180 85 40)" fill="#FFDADA"/><rect x="76" y="40" width="4" height="4" transform="rotate(-180 76 40)" fill="#FFDADA"/><rect x="67" y="40" width="4" height="4" transform="rotate(-180 67 40)" fill="#FFDADA"/><rect x="58" y="40" width="4" height="4" transform="rotate(-180 58 40)" fill="#FFDADA"/><rect x="49" y="40" width="4" height="4" transform="rotate(-180 49 40)" fill="#FFDADA"/><rect x="40" y="40" width="4" height="4" transform="rotate(-180 40 40)" fill="#FFDADA"/><rect x="31" y="40" width="4" height="4" transform="rotate(-180 31 40)" fill="#FFDADA"/><rect x="22" y="40" width="4" height="4" transform="rotate(-180 22 40)" fill="#FFDADA"/><rect x="13" y="40" width="4" height="4" transform="rotate(-180 13 40)" fill="#FFDADA"/><rect x="4" y="40" width="4" height="4" transform="rotate(-180 4 40)" fill="#FFDADA"/><rect x="94" y="4" width="4" height="4" transform="rotate(-180 94 4)" fill="#FFDADA"/><rect x="85" y="4" width="4" height="4" transform="rotate(-180 85 4)" fill="#FFDADA"/><rect x="76" y="4" width="4" height="4" transform="rotate(-180 76 4)" fill="#FFDADA"/><rect x="67" y="4" width="4" height="4" transform="rotate(-180 67 4)" fill="#FFDADA"/><rect x="58" y="4" width="4" height="4" transform="rotate(-180 58 4)" fill="#FFDADA"/><rect x="49" y="4" width="4" height="4" transform="rotate(-180 49 4)" fill="#FFDADA"/><rect x="40" y="4" width="4" height="4" transform="rotate(-180 40 4)" fill="#FFDADA"/><rect x="31" y="4" width="4" height="4" transform="rotate(-180 31 4)" fill="#FFDADA"/><rect x="22" y="4" width="4" height="4" transform="rotate(-180 22 4)" fill="#FFDADA"/><rect x="13" y="4" width="4" height="4" transform="rotate(-180 13 4)" fill="#FFDADA"/><rect x="4" y="4" width="4" height="4" transform="rotate(-180 4 4)" fill="#FFDADA"/><rect x="94" y="85" width="4" height="4" transform="rotate(-180 94 85)" fill="#FFDADA"/><rect x="85" y="85" width="4" height="4" transform="rotate(-180 85 85)" fill="#FFDADA"/><rect x="76" y="85" width="4" height="4" transform="rotate(-180 76 85)" fill="#FFDADA"/><rect x="67" y="85" width="4" height="4" transform="rotate(-180 67 85)" fill="#FFDADA"/><rect x="58" y="85" width="4" height="4" transform="rotate(-180 58 85)" fill="#FFDADA"/><rect x="49" y="85" width="4" height="4" transform="rotate(-180 49 85)" fill="#FFDADA"/><rect x="40" y="85" width="4" height="4" transform="rotate(-180 40 85)" fill="#FFDADA"/><rect x="31" y="85" width="4" height="4" transform="rotate(-180 31 85)" fill="#FFDADA"/><rect x="22" y="85" width="4" height="4" transform="rotate(-180 22 85)" fill="#FFDADA"/><rect x="13" y="85" width="4" height="4" transform="rotate(-180 13 85)" fill="#FFDADA"/><rect x="4" y="85" width="4" height="4" transform="rotate(-180 4 85)" fill="#FFDADA"/><rect x="94" y="76" width="4" height="4" transform="rotate(-180 94 76)" fill="#FFDADA"/><rect x="85" y="76" width="4" height="4" transform="rotate(-180 85 76)" fill="#FFDADA"/><rect x="76" y="76" width="4" height="4" transform="rotate(-180 76 76)" fill="#FFDADA"/><rect x="67" y="76" width="4" height="4" transform="rotate(-180 67 76)" fill="#FFDADA"/><rect x="58" y="76" width="4" height="4" transform="rotate(-180 58 76)" fill="#FFDADA"/><rect x="49" y="76" width="4" height="4" transform="rotate(-180 49 76)" fill="#FFDADA"/><rect x="40" y="76" width="4" height="4" transform="rotate(-180 40 76)" fill="#FFDADA"/><rect x="31" y="76" width="4" height="4" transform="rotate(-180 31 76)" fill="#FFDADA"/><rect x="22" y="76" width="4" height="4" transform="rotate(-180 22 76)" fill="#FFDADA"/><rect x="13" y="76" width="4" height="4" transform="rotate(-180 13 76)" fill="#FFDADA"/><rect x="4" y="76" width="4" height="4" transform="rotate(-180 4 76)" fill="#FFDADA"/><rect x="94" y="67" width="4" height="4" transform="rotate(-180 94 67)" fill="#FFDADA"/><rect x="85" y="67" width="4" height="4" transform="rotate(-180 85 67)" fill="#FFDADA"/><rect x="76" y="67" width="4" height="4" transform="rotate(-180 76 67)" fill="#FFDADA"/><rect x="67" y="67" width="4" height="4" transform="rotate(-180 67 67)" fill="#FFDADA"/><rect x="58" y="67" width="4" height="4" transform="rotate(-180 58 67)" fill="#FFDADA"/><rect x="49" y="67" width="4" height="4" transform="rotate(-180 49 67)" fill="#FFDADA"/><rect x="40" y="67" width="4" height="4" transform="rotate(-180 40 67)" fill="#FFDADA"/><rect x="31" y="67" width="4" height="4" transform="rotate(-180 31 67)" fill="#FFDADA"/><rect x="22" y="67" width="4" height="4" transform="rotate(-180 22 67)" fill="#FFDADA"/><rect x="13" y="67" width="4" height="4" transform="rotate(-180 13 67)" fill="#FFDADA"/><rect x="4" y="67" width="4" height="4" transform="rotate(-180 4 67)" fill="#FFDADA"/><rect x="94" y="31" width="4" height="4" transform="rotate(-180 94 31)" fill="#FFDADA"/><rect x="85" y="31" width="4" height="4" transform="rotate(-180 85 31)" fill="#FFDADA"/><rect x="76" y="31" width="4" height="4" transform="rotate(-180 76 31)" fill="#FFDADA"/><rect x="67" y="31" width="4" height="4" transform="rotate(-180 67 31)" fill="#FFDADA"/><rect x="58" y="31" width="4" height="4" transform="rotate(-180 58 31)" fill="#FFDADA"/><rect x="49" y="31" width="4" height="4" transform="rotate(-180 49 31)" fill="#FFDADA"/><rect x="40" y="31" width="4" height="4" transform="rotate(-180 40 31)" fill="#FFDADA"/><rect x="31" y="31" width="4" height="4" transform="rotate(-180 31 31)" fill="#FFDADA"/><rect x="22" y="31" width="4" height="4" transform="rotate(-180 22 31)" fill="#FFDADA"/><rect x="13" y="31" width="4" height="4" transform="rotate(-180 13 31)" fill="#FFDADA"/><rect x="4" y="31" width="4" height="4" transform="rotate(-180 4 31)" fill="#FFDADA"/></svg>