<svg width="165" height="250" fill="none" xmlns="http://www.w3.org/2000/svg"><rect x="110.878" y="-6.10352e-05" width="8.21319" height="4.10659" transform="rotate(90 110.878 -6.10352e-05)" fill="#E5E5E5"/><rect x="39.6971" y="-6.10352e-05" width="8.21319" height="4.10659" transform="rotate(90 39.6971 -6.10352e-05)" fill="#E5E5E5"/><rect x="93.0829" y="-6.10352e-05" width="8.21319" height="4.10659" transform="rotate(90 93.0829 -6.10352e-05)" fill="#E5E5E5"/><rect x="21.9019" y="-6.10352e-05" width="8.21319" height="4.10659" transform="rotate(90 21.9019 -6.10352e-05)" fill="#E5E5E5"/><rect x="75.2877" y="-6.10352e-05" width="8.21319" height="4.10659" transform="rotate(90 75.2877 -6.10352e-05)" fill="#E5E5E5"/><rect x="4.10663" y="-6.10352e-05" width="8.21319" height="4.10659" transform="rotate(90 4.10663 -6.10352e-05)" fill="#E5E5E5"/><rect x="164.264" y="-6.10352e-05" width="8.21319" height="4.10659" transform="rotate(90 164.264 -6.10352e-05)" fill="#E5E5E5"/><rect x="146.469" y="-6.10352e-05" width="8.21319" height="4.10659" transform="rotate(90 146.469 -6.10352e-05)" fill="#E5E5E5"/><rect x="128.673" y="-6.10352e-05" width="8.21319" height="4.10659" transform="rotate(90 128.673 -6.10352e-05)" fill="#E5E5E5"/><rect x="57.4924" y="-6.10352e-05" width="8.21319" height="4.10659" transform="rotate(90 57.4924 -6.10352e-05)" fill="#E5E5E5"/><rect x="110.878" y="21.9013" width="8.21319" height="4.10659" transform="rotate(90 110.878 21.9013)" fill="#E5E5E5"/><rect x="39.6971" y="21.9013" width="8.21319" height="4.10659" transform="rotate(90 39.6971 21.9013)" fill="#E5E5E5"/><rect x="93.0829" y="21.9013" width="8.21319" height="4.10659" transform="rotate(90 93.0829 21.9013)" fill="#E5E5E5"/><rect x="21.9019" y="21.9013" width="8.21319" height="4.10659" transform="rotate(90 21.9019 21.9013)" fill="#E5E5E5"/><rect x="75.2877" y="21.9013" width="8.21319" height="4.10659" transform="rotate(90 75.2877 21.9013)" fill="#E5E5E5"/><rect x="4.10663" y="21.9013" width="8.21319" height="4.10659" transform="rotate(90 4.10663 21.9013)" fill="#E5E5E5"/><rect x="164.264" y="21.9013" width="8.21319" height="4.10659" transform="rotate(90 164.264 21.9013)" fill="#E5E5E5"/><rect x="146.469" y="21.9013" width="8.21319" height="4.10659" transform="rotate(90 146.469 21.9013)" fill="#E5E5E5"/><rect x="128.673" y="21.9013" width="8.21319" height="4.10659" transform="rotate(90 128.673 21.9013)" fill="#E5E5E5"/><rect x="57.4924" y="21.9013" width="8.21319" height="4.10659" transform="rotate(90 57.4924 21.9013)" fill="#E5E5E5"/><rect x="110.878" y="43.8035" width="8.21319" height="4.10659" transform="rotate(90 110.878 43.8035)" fill="#E5E5E5"/><rect x="39.6971" y="43.8035" width="8.21319" height="4.10659" transform="rotate(90 39.6971 43.8035)" fill="#E5E5E5"/><rect x="93.0829" y="43.8035" width="8.21319" height="4.10659" transform="rotate(90 93.0829 43.8035)" fill="#E5E5E5"/><rect x="21.9019" y="43.8035" width="8.21319" height="4.10659" transform="rotate(90 21.9019 43.8035)" fill="#E5E5E5"/><rect x="75.2877" y="43.8035" width="8.21319" height="4.10659" transform="rotate(90 75.2877 43.8035)" fill="#E5E5E5"/><rect x="4.10663" y="43.8035" width="8.21319" height="4.10659" transform="rotate(90 4.10663 43.8035)" fill="#E5E5E5"/><rect x="164.264" y="43.8035" width="8.21319" height="4.10659" transform="rotate(90 164.264 43.8035)" fill="#E5E5E5"/><rect x="146.469" y="43.8035" width="8.21319" height="4.10659" transform="rotate(90 146.469 43.8035)" fill="#E5E5E5"/><rect x="128.673" y="43.8035" width="8.21319" height="4.10659" transform="rotate(90 128.673 43.8035)" fill="#E5E5E5"/><rect x="57.4924" y="43.8035" width="8.21319" height="4.10659" transform="rotate(90 57.4924 43.8035)" fill="#E5E5E5"/><rect x="110.878" y="131.411" width="8.21319" height="4.10659" transform="rotate(90 110.878 131.411)" fill="#E5E5E5"/><rect x="39.6971" y="131.411" width="8.21319" height="4.10659" transform="rotate(90 39.6971 131.411)" fill="#E5E5E5"/><rect x="93.0829" y="131.411" width="8.21319" height="4.10659" transform="rotate(90 93.0829 131.411)" fill="#E5E5E5"/><rect x="21.9019" y="131.411" width="8.21319" height="4.10659" transform="rotate(90 21.9019 131.411)" fill="#E5E5E5"/><rect x="75.2877" y="131.411" width="8.21319" height="4.10659" transform="rotate(90 75.2877 131.411)" fill="#E5E5E5"/><rect x="4.10663" y="131.411" width="8.21319" height="4.10659" transform="rotate(90 4.10663 131.411)" fill="#E5E5E5"/><rect x="164.264" y="131.411" width="8.21319" height="4.10659" transform="rotate(90 164.264 131.411)" fill="#E5E5E5"/><rect x="146.469" y="131.411" width="8.21319" height="4.10659" transform="rotate(90 146.469 131.411)" fill="#E5E5E5"/><rect x="128.673" y="131.411" width="8.21319" height="4.10659" transform="rotate(90 128.673 131.411)" fill="#E5E5E5"/><rect x="57.4924" y="131.411" width="8.21319" height="4.10659" transform="rotate(90 57.4924 131.411)" fill="#E5E5E5"/><rect x="110.878" y="153.313" width="8.21319" height="4.10659" transform="rotate(90 110.878 153.313)" fill="#E5E5E5"/><rect x="39.6971" y="153.313" width="8.21319" height="4.10659" transform="rotate(90 39.6971 153.313)" fill="#E5E5E5"/><rect x="93.0829" y="153.313" width="8.21319" height="4.10659" transform="rotate(90 93.0829 153.313)" fill="#E5E5E5"/><rect x="21.9019" y="153.313" width="8.21319" height="4.10659" transform="rotate(90 21.9019 153.313)" fill="#E5E5E5"/><rect x="75.2877" y="153.313" width="8.21319" height="4.10659" transform="rotate(90 75.2877 153.313)" fill="#E5E5E5"/><rect x="4.10663" y="153.313" width="8.21319" height="4.10659" transform="rotate(90 4.10663 153.313)" fill="#E5E5E5"/><rect x="164.264" y="153.313" width="8.21319" height="4.10659" transform="rotate(90 164.264 153.313)" fill="#E5E5E5"/><rect x="146.469" y="153.313" width="8.21319" height="4.10659" transform="rotate(90 146.469 153.313)" fill="#E5E5E5"/><rect x="128.673" y="153.313" width="8.21319" height="4.10659" transform="rotate(90 128.673 153.313)" fill="#E5E5E5"/><rect x="57.4924" y="153.313" width="8.21319" height="4.10659" transform="rotate(90 57.4924 153.313)" fill="#E5E5E5"/><rect x="110.878" y="175.215" width="8.21319" height="4.10659" transform="rotate(90 110.878 175.215)" fill="#E5E5E5"/><rect x="39.6971" y="175.215" width="8.21319" height="4.10659" transform="rotate(90 39.6971 175.215)" fill="#E5E5E5"/><rect x="93.0829" y="175.215" width="8.21319" height="4.10659" transform="rotate(90 93.0829 175.215)" fill="#E5E5E5"/><rect x="21.9019" y="175.215" width="8.21319" height="4.10659" transform="rotate(90 21.9019 175.215)" fill="#E5E5E5"/><rect x="75.2877" y="175.215" width="8.21319" height="4.10659" transform="rotate(90 75.2877 175.215)" fill="#E5E5E5"/><rect x="4.10663" y="175.215" width="8.21319" height="4.10659" transform="rotate(90 4.10663 175.215)" fill="#E5E5E5"/><rect x="164.264" y="175.215" width="8.21319" height="4.10659" transform="rotate(90 164.264 175.215)" fill="#E5E5E5"/><rect x="146.469" y="175.215" width="8.21319" height="4.10659" transform="rotate(90 146.469 175.215)" fill="#E5E5E5"/><rect x="128.673" y="175.215" width="8.21319" height="4.10659" transform="rotate(90 128.673 175.215)" fill="#E5E5E5"/><rect x="57.4924" y="175.215" width="8.21319" height="4.10659" transform="rotate(90 57.4924 175.215)" fill="#E5E5E5"/><rect x="110.878" y="65.7053" width="8.21319" height="4.10659" transform="rotate(90 110.878 65.7053)" fill="#E5E5E5"/><rect x="39.6971" y="65.7053" width="8.21319" height="4.10659" transform="rotate(90 39.6971 65.7053)" fill="#E5E5E5"/><rect x="93.0829" y="65.7053" width="8.21319" height="4.10659" transform="rotate(90 93.0829 65.7053)" fill="#E5E5E5"/><rect x="21.9019" y="65.7052" width="8.21319" height="4.10659" transform="rotate(90 21.9019 65.7052)" fill="#E5E5E5"/><rect x="75.2877" y="65.7053" width="8.21319" height="4.10659" transform="rotate(90 75.2877 65.7053)" fill="#E5E5E5"/><rect x="4.10663" y="65.7052" width="8.21319" height="4.10659" transform="rotate(90 4.10663 65.7052)" fill="#E5E5E5"/><rect x="164.264" y="65.7053" width="8.21319" height="4.10659" transform="rotate(90 164.264 65.7053)" fill="#E5E5E5"/><rect x="146.469" y="65.7053" width="8.21319" height="4.10659" transform="rotate(90 146.469 65.7053)" fill="#E5E5E5"/><rect x="128.673" y="65.7053" width="8.21319" height="4.10659" transform="rotate(90 128.673 65.7053)" fill="#E5E5E5"/><rect x="57.4924" y="65.7053" width="8.21319" height="4.10659" transform="rotate(90 57.4924 65.7053)" fill="#E5E5E5"/><rect x="110.878" y="87.6074" width="8.21319" height="4.10659" transform="rotate(90 110.878 87.6074)" fill="#E5E5E5"/><rect x="39.6971" y="87.6074" width="8.21319" height="4.10659" transform="rotate(90 39.6971 87.6074)" fill="#E5E5E5"/><rect x="93.0829" y="87.6074" width="8.21319" height="4.10659" transform="rotate(90 93.0829 87.6074)" fill="#E5E5E5"/><rect x="21.9019" y="87.6074" width="8.21319" height="4.10659" transform="rotate(90 21.9019 87.6074)" fill="#E5E5E5"/><rect x="75.2877" y="87.6074" width="8.21319" height="4.10659" transform="rotate(90 75.2877 87.6074)" fill="#E5E5E5"/><rect x="4.10663" y="87.6074" width="8.21319" height="4.10659" transform="rotate(90 4.10663 87.6074)" fill="#E5E5E5"/><rect x="164.264" y="87.6074" width="8.21319" height="4.10659" transform="rotate(90 164.264 87.6074)" fill="#E5E5E5"/><rect x="146.469" y="87.6074" width="8.21319" height="4.10659" transform="rotate(90 146.469 87.6074)" fill="#E5E5E5"/><rect x="128.673" y="87.6074" width="8.21319" height="4.10659" transform="rotate(90 128.673 87.6074)" fill="#E5E5E5"/><rect x="57.4924" y="87.6074" width="8.21319" height="4.10659" transform="rotate(90 57.4924 87.6074)" fill="#E5E5E5"/><rect x="110.878" y="109.509" width="8.21319" height="4.10659" transform="rotate(90 110.878 109.509)" fill="#E5E5E5"/><rect x="39.6971" y="109.509" width="8.21319" height="4.10659" transform="rotate(90 39.6971 109.509)" fill="#E5E5E5"/><rect x="93.0829" y="109.509" width="8.21319" height="4.10659" transform="rotate(90 93.0829 109.509)" fill="#E5E5E5"/><rect x="21.9019" y="109.509" width="8.21319" height="4.10659" transform="rotate(90 21.9019 109.509)" fill="#E5E5E5"/><rect x="75.2877" y="109.509" width="8.21319" height="4.10659" transform="rotate(90 75.2877 109.509)" fill="#E5E5E5"/><rect x="4.10663" y="109.509" width="8.21319" height="4.10659" transform="rotate(90 4.10663 109.509)" fill="#E5E5E5"/><rect x="164.264" y="109.509" width="8.21319" height="4.10659" transform="rotate(90 164.264 109.509)" fill="#E5E5E5"/><rect x="146.469" y="109.509" width="8.21319" height="4.10659" transform="rotate(90 146.469 109.509)" fill="#E5E5E5"/><rect x="128.673" y="109.509" width="8.21319" height="4.10659" transform="rotate(90 128.673 109.509)" fill="#E5E5E5"/><rect x="57.4924" y="109.509" width="8.21319" height="4.10659" transform="rotate(90 57.4924 109.509)" fill="#E5E5E5"/><rect x="110.878" y="197.116" width="8.21319" height="4.10659" transform="rotate(90 110.878 197.116)" fill="#E5E5E5"/><rect x="39.6971" y="197.116" width="8.21319" height="4.10659" transform="rotate(90 39.6971 197.116)" fill="#E5E5E5"/><rect x="93.0829" y="197.116" width="8.21319" height="4.10659" transform="rotate(90 93.0829 197.116)" fill="#E5E5E5"/><rect x="21.9019" y="197.116" width="8.21319" height="4.10659" transform="rotate(90 21.9019 197.116)" fill="#E5E5E5"/><rect x="75.2877" y="197.116" width="8.21319" height="4.10659" transform="rotate(90 75.2877 197.116)" fill="#E5E5E5"/><rect x="4.10663" y="197.116" width="8.21319" height="4.10659" transform="rotate(90 4.10663 197.116)" fill="#E5E5E5"/><rect x="164.264" y="197.116" width="8.21319" height="4.10659" transform="rotate(90 164.264 197.116)" fill="#E5E5E5"/><rect x="146.469" y="197.116" width="8.21319" height="4.10659" transform="rotate(90 146.469 197.116)" fill="#E5E5E5"/><rect x="128.673" y="197.116" width="8.21319" height="4.10659" transform="rotate(90 128.673 197.116)" fill="#E5E5E5"/><rect x="57.4924" y="197.116" width="8.21319" height="4.10659" transform="rotate(90 57.4924 197.116)" fill="#E5E5E5"/><rect x="110.878" y="219.018" width="8.21319" height="4.10659" transform="rotate(90 110.878 219.018)" fill="#E5E5E5"/><rect x="39.6971" y="219.018" width="8.21319" height="4.10659" transform="rotate(90 39.6971 219.018)" fill="#E5E5E5"/><rect x="93.0829" y="219.018" width="8.21319" height="4.10659" transform="rotate(90 93.0829 219.018)" fill="#E5E5E5"/><rect x="21.9019" y="219.018" width="8.21319" height="4.10659" transform="rotate(90 21.9019 219.018)" fill="#E5E5E5"/><rect x="75.2877" y="219.018" width="8.21319" height="4.10659" transform="rotate(90 75.2877 219.018)" fill="#E5E5E5"/><rect x="4.10663" y="219.018" width="8.21319" height="4.10659" transform="rotate(90 4.10663 219.018)" fill="#E5E5E5"/><rect x="164.264" y="219.018" width="8.21319" height="4.10659" transform="rotate(90 164.264 219.018)" fill="#E5E5E5"/><rect x="146.469" y="219.018" width="8.21319" height="4.10659" transform="rotate(90 146.469 219.018)" fill="#E5E5E5"/><rect x="128.673" y="219.018" width="8.21319" height="4.10659" transform="rotate(90 128.673 219.018)" fill="#E5E5E5"/><rect x="57.4924" y="219.018" width="8.21319" height="4.10659" transform="rotate(90 57.4924 219.018)" fill="#E5E5E5"/><rect x="110.878" y="240.92" width="8.21319" height="4.10659" transform="rotate(90 110.878 240.92)" fill="#E5E5E5"/><rect x="39.6971" y="240.92" width="8.21319" height="4.10659" transform="rotate(90 39.6971 240.92)" fill="#E5E5E5"/><rect x="93.0829" y="240.92" width="8.21319" height="4.10659" transform="rotate(90 93.0829 240.92)" fill="#E5E5E5"/><rect x="21.9019" y="240.92" width="8.21319" height="4.10659" transform="rotate(90 21.9019 240.92)" fill="#E5E5E5"/><rect x="75.2877" y="240.92" width="8.21319" height="4.10659" transform="rotate(90 75.2877 240.92)" fill="#E5E5E5"/><rect x="4.10663" y="240.92" width="8.21319" height="4.10659" transform="rotate(90 4.10663 240.92)" fill="#E5E5E5"/><rect x="164.264" y="240.92" width="8.21319" height="4.10659" transform="rotate(90 164.264 240.92)" fill="#E5E5E5"/><rect x="146.469" y="240.92" width="8.21319" height="4.10659" transform="rotate(90 146.469 240.92)" fill="#E5E5E5"/><rect x="128.673" y="240.92" width="8.21319" height="4.10659" transform="rotate(90 128.673 240.92)" fill="#E5E5E5"/><rect x="57.4924" y="240.92" width="8.21319" height="4.10659" transform="rotate(90 57.4924 240.92)" fill="#E5E5E5"/></svg>