<svg width="110" height="425" fill="none" xmlns="http://www.w3.org/2000/svg"><rect width="377.778" height="10" transform="matrix(-4.37114e-08 1 1 4.37114e-08 0 47.2224)" fill="#F4F4F4" fill-opacity="0.75"/><rect width="377.778" height="10" transform="matrix(-4.37114e-08 1 1 4.37114e-08 60 18.8889)" fill="#F4F4F4" fill-opacity="0.75"/><rect width="377.778" height="10" transform="matrix(-4.37114e-08 1 1 4.37114e-08 20 37.7776)" fill="#F4F4F4" fill-opacity="0.75"/><rect width="377.778" height="10" transform="matrix(-4.37114e-08 1 1 4.37114e-08 80 9.4444)" fill="#F4F4F4" fill-opacity="0.75"/><rect width="377.778" height="10" transform="matrix(-4.37114e-08 1 1 4.37114e-08 40 28.3333)" fill="#F4F4F4" fill-opacity="0.75"/><rect width="377.778" height="10" transform="matrix(-4.37114e-08 1 1 4.37114e-08 100 0)" fill="#F4F4F4" fill-opacity="0.75"/></svg>