<svg width="93" height="157" fill="none" xmlns="http://www.w3.org/2000/svg"><rect x="39" width="3" height="3" transform="rotate(90 39 0)" fill="#E5E5E5"/><rect x="39" y="14" width="3" height="3" transform="rotate(90 39 14)" fill="#E5E5E5"/><rect x="39" y="28" width="3" height="3" transform="rotate(90 39 28)" fill="#E5E5E5"/><rect x="21" width="3" height="3" transform="rotate(90 21 0)" fill="#E5E5E5"/><rect x="21" y="14" width="3" height="3" transform="rotate(90 21 14)" fill="#E5E5E5"/><rect x="21" y="28" width="3" height="3" transform="rotate(90 21 28)" fill="#E5E5E5"/><rect x="3" width="3" height="3" transform="rotate(90 3 0)" fill="#E5E5E5"/><rect x="3" y="14" width="3" height="3" transform="rotate(90 3 14)" fill="#E5E5E5"/><rect x="3" y="28" width="3" height="3" transform="rotate(90 3 28)" fill="#E5E5E5"/><rect x="39" y="84" width="3" height="3" transform="rotate(90 39 84)" fill="#E5E5E5"/><rect x="39" y="98" width="3" height="3" transform="rotate(90 39 98)" fill="#E5E5E5"/><rect x="39" y="112" width="3" height="3" transform="rotate(90 39 112)" fill="#E5E5E5"/><rect x="21" y="84" width="3" height="3" transform="rotate(90 21 84)" fill="#E5E5E5"/><rect x="21" y="98" width="3" height="3" transform="rotate(90 21 98)" fill="#E5E5E5"/><rect x="21" y="112" width="3" height="3" transform="rotate(90 21 112)" fill="#E5E5E5"/><rect x="3" y="84" width="3" height="3" transform="rotate(90 3 84)" fill="#E5E5E5"/><rect x="3" y="98" width="3" height="3" transform="rotate(90 3 98)" fill="#E5E5E5"/><rect x="3" y="112" width="3" height="3" transform="rotate(90 3 112)" fill="#E5E5E5"/><rect x="39" y="42" width="3" height="3" transform="rotate(90 39 42)" fill="#E5E5E5"/><rect x="39" y="56" width="3" height="3" transform="rotate(90 39 56)" fill="#E5E5E5"/><rect x="39" y="70" width="3" height="3" transform="rotate(90 39 70)" fill="#E5E5E5"/><rect x="21" y="42" width="3" height="3" transform="rotate(90 21 42)" fill="#E5E5E5"/><rect x="21" y="56" width="3" height="3" transform="rotate(90 21 56)" fill="#E5E5E5"/><rect x="21" y="70" width="3" height="3" transform="rotate(90 21 70)" fill="#E5E5E5"/><rect x="3" y="42" width="3" height="3" transform="rotate(90 3 42)" fill="#E5E5E5"/><rect x="3" y="56" width="3" height="3" transform="rotate(90 3 56)" fill="#E5E5E5"/><rect x="3" y="70" width="3" height="3" transform="rotate(90 3 70)" fill="#E5E5E5"/><rect x="39" y="126" width="3" height="3" transform="rotate(90 39 126)" fill="#E5E5E5"/><rect x="39" y="140" width="3" height="3" transform="rotate(90 39 140)" fill="#E5E5E5"/><rect x="39" y="154" width="3" height="3" transform="rotate(90 39 154)" fill="#E5E5E5"/><rect x="21" y="126" width="3" height="3" transform="rotate(90 21 126)" fill="#E5E5E5"/><rect x="21" y="140" width="3" height="3" transform="rotate(90 21 140)" fill="#E5E5E5"/><rect x="21" y="154" width="3" height="3" transform="rotate(90 21 154)" fill="#E5E5E5"/><rect x="3" y="126" width="3" height="3" transform="rotate(90 3 126)" fill="#E5E5E5"/><rect x="3" y="140" width="3" height="3" transform="rotate(90 3 140)" fill="#E5E5E5"/><rect x="3" y="154" width="3" height="3" transform="rotate(90 3 154)" fill="#E5E5E5"/><rect x="93" width="3" height="3" transform="rotate(90 93 0)" fill="#E5E5E5"/><rect x="93" y="14" width="3" height="3" transform="rotate(90 93 14)" fill="#E5E5E5"/><rect x="93" y="28" width="3" height="3" transform="rotate(90 93 28)" fill="#E5E5E5"/><rect x="75" width="3" height="3" transform="rotate(90 75 0)" fill="#E5E5E5"/><rect x="75" y="14" width="3" height="3" transform="rotate(90 75 14)" fill="#E5E5E5"/><rect x="75" y="28" width="3" height="3" transform="rotate(90 75 28)" fill="#E5E5E5"/><rect x="57" width="3" height="3" transform="rotate(90 57 0)" fill="#E5E5E5"/><rect x="57" y="14" width="3" height="3" transform="rotate(90 57 14)" fill="#E5E5E5"/><rect x="57" y="28" width="3" height="3" transform="rotate(90 57 28)" fill="#E5E5E5"/><rect x="93" y="84" width="3" height="3" transform="rotate(90 93 84)" fill="#E5E5E5"/><rect x="93" y="98" width="3" height="3" transform="rotate(90 93 98)" fill="#E5E5E5"/><rect x="93" y="112" width="3" height="3" transform="rotate(90 93 112)" fill="#E5E5E5"/><rect x="75" y="84" width="3" height="3" transform="rotate(90 75 84)" fill="#E5E5E5"/><rect x="75" y="98" width="3" height="3" transform="rotate(90 75 98)" fill="#E5E5E5"/><rect x="75" y="112" width="3" height="3" transform="rotate(90 75 112)" fill="#E5E5E5"/><rect x="57" y="84" width="3" height="3" transform="rotate(90 57 84)" fill="#E5E5E5"/><rect x="57" y="98" width="3" height="3" transform="rotate(90 57 98)" fill="#E5E5E5"/><rect x="57" y="112" width="3" height="3" transform="rotate(90 57 112)" fill="#E5E5E5"/><rect x="93" y="42" width="3" height="3" transform="rotate(90 93 42)" fill="#E5E5E5"/><rect x="93" y="56" width="3" height="3" transform="rotate(90 93 56)" fill="#E5E5E5"/><rect x="93" y="70" width="3" height="3" transform="rotate(90 93 70)" fill="#E5E5E5"/><rect x="75" y="42" width="3" height="3" transform="rotate(90 75 42)" fill="#E5E5E5"/><rect x="75" y="56" width="3" height="3" transform="rotate(90 75 56)" fill="#E5E5E5"/><rect x="75" y="70" width="3" height="3" transform="rotate(90 75 70)" fill="#E5E5E5"/><rect x="57" y="42" width="3" height="3" transform="rotate(90 57 42)" fill="#E5E5E5"/><rect x="57" y="56" width="3" height="3" transform="rotate(90 57 56)" fill="#E5E5E5"/><rect x="57" y="70" width="3" height="3" transform="rotate(90 57 70)" fill="#E5E5E5"/><rect x="93" y="126" width="3" height="3" transform="rotate(90 93 126)" fill="#E5E5E5"/><rect x="93" y="140" width="3" height="3" transform="rotate(90 93 140)" fill="#E5E5E5"/><rect x="93" y="154" width="3" height="3" transform="rotate(90 93 154)" fill="#E5E5E5"/><rect x="75" y="126" width="3" height="3" transform="rotate(90 75 126)" fill="#E5E5E5"/><rect x="75" y="140" width="3" height="3" transform="rotate(90 75 140)" fill="#E5E5E5"/><rect x="75" y="154" width="3" height="3" transform="rotate(90 75 154)" fill="#E5E5E5"/><rect x="57" y="126" width="3" height="3" transform="rotate(90 57 126)" fill="#E5E5E5"/><rect x="57" y="140" width="3" height="3" transform="rotate(90 57 140)" fill="#E5E5E5"/><rect x="57" y="154" width="3" height="3" transform="rotate(90 57 154)" fill="#E5E5E5"/></svg>