<svg width="254" height="283" fill="none" xmlns="http://www.w3.org/2000/svg"><rect x="113.771" y="1" width="6" height="6" transform="rotate(90 113.771 1)" stroke="#E5E5E5" stroke-width="2"/><rect x="113.771" y="19" width="6" height="6" transform="rotate(90 113.771 19)" stroke="#E5E5E5" stroke-width="2"/><rect x="113.771" y="37" width="6" height="6" transform="rotate(90 113.771 37)" stroke="#E5E5E5" stroke-width="2"/><rect x="113.771" y="55" width="6" height="6" transform="rotate(90 113.771 55)" stroke="#E5E5E5" stroke-width="2"/><rect x="113.771" y="73" width="6" height="6" transform="rotate(90 113.771 73)" stroke="#E5E5E5" stroke-width="2"/><rect x="113.771" y="91" width="6" height="6" transform="rotate(90 113.771 91)" stroke="#E5E5E5" stroke-width="2"/><rect x="113.771" y="109" width="6" height="6" transform="rotate(90 113.771 109)" stroke="#E5E5E5" stroke-width="2"/><rect x="113.771" y="127" width="6" height="6" transform="rotate(90 113.771 127)" stroke="#E5E5E5" stroke-width="2"/><rect x="113.771" y="145" width="6" height="6" transform="rotate(90 113.771 145)" stroke="#E5E5E5" stroke-width="2"/><rect x="113.771" y="163" width="6" height="6" transform="rotate(90 113.771 163)" stroke="#E5E5E5" stroke-width="2"/><rect x="113.771" y="181" width="6" height="6" transform="rotate(90 113.771 181)" stroke="#E5E5E5" stroke-width="2"/><rect x="42.5906" y="1" width="6" height="6" transform="rotate(90 42.5906 1)" stroke="#E5E5E5" stroke-width="2"/><rect x="42.5906" y="19" width="6" height="6" transform="rotate(90 42.5906 19)" stroke="#E5E5E5" stroke-width="2"/><rect x="42.5906" y="37" width="6" height="6" transform="rotate(90 42.5906 37)" stroke="#E5E5E5" stroke-width="2"/><rect x="42.5906" y="55" width="6" height="6" transform="rotate(90 42.5906 55)" stroke="#E5E5E5" stroke-width="2"/><rect x="42.5906" y="73" width="6" height="6" transform="rotate(90 42.5906 73)" stroke="#E5E5E5" stroke-width="2"/><rect x="42.5906" y="91" width="6" height="6" transform="rotate(90 42.5906 91)" stroke="#E5E5E5" stroke-width="2"/><rect x="42.5906" y="109" width="6" height="6" transform="rotate(90 42.5906 109)" stroke="#E5E5E5" stroke-width="2"/><rect x="42.5906" y="127" width="6" height="6" transform="rotate(90 42.5906 127)" stroke="#E5E5E5" stroke-width="2"/><rect x="42.5906" y="145" width="6" height="6" transform="rotate(90 42.5906 145)" stroke="#E5E5E5" stroke-width="2"/><rect x="42.5906" y="163" width="6" height="6" transform="rotate(90 42.5906 163)" stroke="#E5E5E5" stroke-width="2"/><rect x="42.5906" y="181" width="6" height="6" transform="rotate(90 42.5906 181)" stroke="#E5E5E5" stroke-width="2"/><rect x="95.9763" y="1" width="6" height="6" transform="rotate(90 95.9763 1)" stroke="#E5E5E5" stroke-width="2"/><rect x="95.9763" y="19" width="6" height="6" transform="rotate(90 95.9763 19)" stroke="#E5E5E5" stroke-width="2"/><rect x="95.9763" y="37" width="6" height="6" transform="rotate(90 95.9763 37)" stroke="#E5E5E5" stroke-width="2"/><rect x="95.9763" y="55" width="6" height="6" transform="rotate(90 95.9763 55)" stroke="#E5E5E5" stroke-width="2"/><rect x="95.9763" y="73" width="6" height="6" transform="rotate(90 95.9763 73)" stroke="#E5E5E5" stroke-width="2"/><rect x="95.9763" y="91" width="6" height="6" transform="rotate(90 95.9763 91)" stroke="#E5E5E5" stroke-width="2"/><rect x="95.9763" y="109" width="6" height="6" transform="rotate(90 95.9763 109)" stroke="#E5E5E5" stroke-width="2"/><rect x="95.9763" y="127" width="6" height="6" transform="rotate(90 95.9763 127)" stroke="#E5E5E5" stroke-width="2"/><rect x="95.9763" y="145" width="6" height="6" transform="rotate(90 95.9763 145)" stroke="#E5E5E5" stroke-width="2"/><rect x="95.9763" y="163" width="6" height="6" transform="rotate(90 95.9763 163)" stroke="#E5E5E5" stroke-width="2"/><rect x="95.9763" y="181" width="6" height="6" transform="rotate(90 95.9763 181)" stroke="#E5E5E5" stroke-width="2"/><rect x="24.7954" y="1" width="6" height="6" transform="rotate(90 24.7954 1)" stroke="#E5E5E5" stroke-width="2"/><rect x="24.7954" y="19" width="6" height="6" transform="rotate(90 24.7954 19)" stroke="#E5E5E5" stroke-width="2"/><rect x="24.7954" y="37" width="6" height="6" transform="rotate(90 24.7954 37)" stroke="#E5E5E5" stroke-width="2"/><rect x="24.7954" y="55" width="6" height="6" transform="rotate(90 24.7954 55)" stroke="#E5E5E5" stroke-width="2"/><rect x="24.7954" y="73" width="6" height="6" transform="rotate(90 24.7954 73)" stroke="#E5E5E5" stroke-width="2"/><rect x="24.7954" y="91" width="6" height="6" transform="rotate(90 24.7954 91)" stroke="#E5E5E5" stroke-width="2"/><rect x="24.7954" y="109" width="6" height="6" transform="rotate(90 24.7954 109)" stroke="#E5E5E5" stroke-width="2"/><rect x="24.7954" y="127" width="6" height="6" transform="rotate(90 24.7954 127)" stroke="#E5E5E5" stroke-width="2"/><rect x="24.7954" y="145" width="6" height="6" transform="rotate(90 24.7954 145)" stroke="#E5E5E5" stroke-width="2"/><rect x="24.7954" y="163" width="6" height="6" transform="rotate(90 24.7954 163)" stroke="#E5E5E5" stroke-width="2"/><rect x="24.7954" y="181" width="6" height="6" transform="rotate(90 24.7954 181)" stroke="#E5E5E5" stroke-width="2"/><rect x="78.1812" y="1" width="6" height="6" transform="rotate(90 78.1812 1)" stroke="#E5E5E5" stroke-width="2"/><rect x="78.1812" y="19" width="6" height="6" transform="rotate(90 78.1812 19)" stroke="#E5E5E5" stroke-width="2"/><rect x="78.1812" y="37" width="6" height="6" transform="rotate(90 78.1812 37)" stroke="#E5E5E5" stroke-width="2"/><rect x="78.1812" y="55" width="6" height="6" transform="rotate(90 78.1812 55)" stroke="#E5E5E5" stroke-width="2"/><rect x="78.1812" y="73" width="6" height="6" transform="rotate(90 78.1812 73)" stroke="#E5E5E5" stroke-width="2"/><rect x="78.1812" y="91" width="6" height="6" transform="rotate(90 78.1812 91)" stroke="#E5E5E5" stroke-width="2"/><rect x="78.1812" y="109" width="6" height="6" transform="rotate(90 78.1812 109)" stroke="#E5E5E5" stroke-width="2"/><rect x="78.1812" y="127" width="6" height="6" transform="rotate(90 78.1812 127)" stroke="#E5E5E5" stroke-width="2"/><rect x="78.1812" y="145" width="6" height="6" transform="rotate(90 78.1812 145)" stroke="#E5E5E5" stroke-width="2"/><rect x="78.1812" y="163" width="6" height="6" transform="rotate(90 78.1812 163)" stroke="#E5E5E5" stroke-width="2"/><rect x="78.1812" y="181" width="6" height="6" transform="rotate(90 78.1812 181)" stroke="#E5E5E5" stroke-width="2"/><rect x="7" y="1" width="6" height="6" transform="rotate(90 7 1)" stroke="#E5E5E5" stroke-width="2"/><rect x="7" y="19" width="6" height="6" transform="rotate(90 7 19)" stroke="#E5E5E5" stroke-width="2"/><rect x="7" y="37" width="6" height="6" transform="rotate(90 7 37)" stroke="#E5E5E5" stroke-width="2"/><rect x="7" y="55" width="6" height="6" transform="rotate(90 7 55)" stroke="#E5E5E5" stroke-width="2"/><rect x="7" y="73" width="6" height="6" transform="rotate(90 7 73)" stroke="#E5E5E5" stroke-width="2"/><rect x="7" y="91" width="6" height="6" transform="rotate(90 7 91)" stroke="#E5E5E5" stroke-width="2"/><rect x="7" y="109" width="6" height="6" transform="rotate(90 7 109)" stroke="#E5E5E5" stroke-width="2"/><rect x="7" y="127" width="6" height="6" transform="rotate(90 7 127)" stroke="#E5E5E5" stroke-width="2"/><rect x="7" y="145" width="6" height="6" transform="rotate(90 7 145)" stroke="#E5E5E5" stroke-width="2"/><rect x="7" y="163" width="6" height="6" transform="rotate(90 7 163)" stroke="#E5E5E5" stroke-width="2"/><rect x="7" y="181" width="6" height="6" transform="rotate(90 7 181)" stroke="#E5E5E5" stroke-width="2"/><rect x="167.157" y="1" width="6" height="6" transform="rotate(90 167.157 1)" stroke="#E5E5E5" stroke-width="2"/><rect x="167.157" y="19" width="6" height="6" transform="rotate(90 167.157 19)" stroke="#E5E5E5" stroke-width="2"/><rect x="167.157" y="37" width="6" height="6" transform="rotate(90 167.157 37)" stroke="#E5E5E5" stroke-width="2"/><rect x="167.157" y="55" width="6" height="6" transform="rotate(90 167.157 55)" stroke="#E5E5E5" stroke-width="2"/><rect x="167.157" y="73" width="6" height="6" transform="rotate(90 167.157 73)" stroke="#E5E5E5" stroke-width="2"/><rect x="167.157" y="91" width="6" height="6" transform="rotate(90 167.157 91)" stroke="#E5E5E5" stroke-width="2"/><rect x="167.157" y="109" width="6" height="6" transform="rotate(90 167.157 109)" stroke="#E5E5E5" stroke-width="2"/><rect x="167.157" y="127" width="6" height="6" transform="rotate(90 167.157 127)" stroke="#E5E5E5" stroke-width="2"/><rect x="167.157" y="145" width="6" height="6" transform="rotate(90 167.157 145)" stroke="#E5E5E5" stroke-width="2"/><rect x="167.157" y="163" width="6" height="6" transform="rotate(90 167.157 163)" stroke="#E5E5E5" stroke-width="2"/><rect x="167.157" y="181" width="6" height="6" transform="rotate(90 167.157 181)" stroke="#E5E5E5" stroke-width="2"/><rect x="149.362" y="1" width="6" height="6" transform="rotate(90 149.362 1)" stroke="#E5E5E5" stroke-width="2"/><rect x="149.362" y="19" width="6" height="6" transform="rotate(90 149.362 19)" stroke="#E5E5E5" stroke-width="2"/><rect x="149.362" y="37" width="6" height="6" transform="rotate(90 149.362 37)" stroke="#E5E5E5" stroke-width="2"/><rect x="149.362" y="55" width="6" height="6" transform="rotate(90 149.362 55)" stroke="#E5E5E5" stroke-width="2"/><rect x="149.362" y="73" width="6" height="6" transform="rotate(90 149.362 73)" stroke="#E5E5E5" stroke-width="2"/><rect x="149.362" y="91" width="6" height="6" transform="rotate(90 149.362 91)" stroke="#E5E5E5" stroke-width="2"/><rect x="149.362" y="109" width="6" height="6" transform="rotate(90 149.362 109)" stroke="#E5E5E5" stroke-width="2"/><rect x="149.362" y="127" width="6" height="6" transform="rotate(90 149.362 127)" stroke="#E5E5E5" stroke-width="2"/><rect x="149.362" y="145" width="6" height="6" transform="rotate(90 149.362 145)" stroke="#E5E5E5" stroke-width="2"/><rect x="149.362" y="163" width="6" height="6" transform="rotate(90 149.362 163)" stroke="#E5E5E5" stroke-width="2"/><rect x="149.362" y="181" width="6" height="6" transform="rotate(90 149.362 181)" stroke="#E5E5E5" stroke-width="2"/><rect x="131.567" y="1" width="6" height="6" transform="rotate(90 131.567 1)" stroke="#E5E5E5" stroke-width="2"/><rect x="131.567" y="19" width="6" height="6" transform="rotate(90 131.567 19)" stroke="#E5E5E5" stroke-width="2"/><rect x="131.567" y="37" width="6" height="6" transform="rotate(90 131.567 37)" stroke="#E5E5E5" stroke-width="2"/><rect x="131.567" y="55" width="6" height="6" transform="rotate(90 131.567 55)" stroke="#E5E5E5" stroke-width="2"/><rect x="131.567" y="73" width="6" height="6" transform="rotate(90 131.567 73)" stroke="#E5E5E5" stroke-width="2"/><rect x="131.567" y="91" width="6" height="6" transform="rotate(90 131.567 91)" stroke="#E5E5E5" stroke-width="2"/><rect x="131.567" y="109" width="6" height="6" transform="rotate(90 131.567 109)" stroke="#E5E5E5" stroke-width="2"/><rect x="131.567" y="127" width="6" height="6" transform="rotate(90 131.567 127)" stroke="#E5E5E5" stroke-width="2"/><rect x="131.567" y="145" width="6" height="6" transform="rotate(90 131.567 145)" stroke="#E5E5E5" stroke-width="2"/><rect x="131.567" y="163" width="6" height="6" transform="rotate(90 131.567 163)" stroke="#E5E5E5" stroke-width="2"/><rect x="131.567" y="181" width="6" height="6" transform="rotate(90 131.567 181)" stroke="#E5E5E5" stroke-width="2"/><rect x="60.3857" y="1" width="6" height="6" transform="rotate(90 60.3857 1)" stroke="#E5E5E5" stroke-width="2"/><rect x="60.3857" y="19" width="6" height="6" transform="rotate(90 60.3857 19)" stroke="#E5E5E5" stroke-width="2"/><rect x="60.3857" y="37" width="6" height="6" transform="rotate(90 60.3857 37)" stroke="#E5E5E5" stroke-width="2"/><rect x="60.3857" y="55" width="6" height="6" transform="rotate(90 60.3857 55)" stroke="#E5E5E5" stroke-width="2"/><rect x="60.3857" y="73" width="6" height="6" transform="rotate(90 60.3857 73)" stroke="#E5E5E5" stroke-width="2"/><rect x="60.3857" y="91" width="6" height="6" transform="rotate(90 60.3857 91)" stroke="#E5E5E5" stroke-width="2"/><rect x="60.3857" y="109" width="6" height="6" transform="rotate(90 60.3857 109)" stroke="#E5E5E5" stroke-width="2"/><rect x="60.3857" y="127" width="6" height="6" transform="rotate(90 60.3857 127)" stroke="#E5E5E5" stroke-width="2"/><rect x="60.3857" y="145" width="6" height="6" transform="rotate(90 60.3857 145)" stroke="#E5E5E5" stroke-width="2"/><rect x="60.3857" y="163" width="6" height="6" transform="rotate(90 60.3857 163)" stroke="#E5E5E5" stroke-width="2"/><rect x="60.3857" y="181" width="6" height="6" transform="rotate(90 60.3857 181)" stroke="#E5E5E5" stroke-width="2"/><rect x="226.579" y="188.421" width="4" height="4" transform="rotate(90 226.579 188.421)" fill="#FFDADA"/><rect x="226.579" y="197.421" width="4" height="4" transform="rotate(90 226.579 197.421)" fill="#FFDADA"/><rect x="226.579" y="206.421" width="4" height="4" transform="rotate(90 226.579 206.421)" fill="#FFDADA"/><rect x="226.579" y="215.421" width="4" height="4" transform="rotate(90 226.579 215.421)" fill="#FFDADA"/><rect x="226.579" y="224.421" width="4" height="4" transform="rotate(90 226.579 224.421)" fill="#FFDADA"/><rect x="226.579" y="233.421" width="4" height="4" transform="rotate(90 226.579 233.421)" fill="#FFDADA"/><rect x="226.579" y="242.421" width="4" height="4" transform="rotate(90 226.579 242.421)" fill="#FFDADA"/><rect x="226.579" y="251.421" width="4" height="4" transform="rotate(90 226.579 251.421)" fill="#FFDADA"/><rect x="226.579" y="260.421" width="4" height="4" transform="rotate(90 226.579 260.421)" fill="#FFDADA"/><rect x="226.579" y="269.421" width="4" height="4" transform="rotate(90 226.579 269.421)" fill="#FFDADA"/><rect x="226.579" y="278.421" width="4" height="4" transform="rotate(90 226.579 278.421)" fill="#FFDADA"/><rect x="190.579" y="188.421" width="4" height="4" transform="rotate(90 190.579 188.421)" fill="#FFDADA"/><rect x="190.579" y="197.421" width="4" height="4" transform="rotate(90 190.579 197.421)" fill="#FFDADA"/><rect x="190.579" y="206.421" width="4" height="4" transform="rotate(90 190.579 206.421)" fill="#FFDADA"/><rect x="190.579" y="215.421" width="4" height="4" transform="rotate(90 190.579 215.421)" fill="#FFDADA"/><rect x="190.579" y="224.421" width="4" height="4" transform="rotate(90 190.579 224.421)" fill="#FFDADA"/><rect x="190.579" y="233.421" width="4" height="4" transform="rotate(90 190.579 233.421)" fill="#FFDADA"/><rect x="190.579" y="242.421" width="4" height="4" transform="rotate(90 190.579 242.421)" fill="#FFDADA"/><rect x="190.579" y="251.421" width="4" height="4" transform="rotate(90 190.579 251.421)" fill="#FFDADA"/><rect x="190.579" y="260.421" width="4" height="4" transform="rotate(90 190.579 260.421)" fill="#FFDADA"/><rect x="190.579" y="269.421" width="4" height="4" transform="rotate(90 190.579 269.421)" fill="#FFDADA"/><rect x="190.579" y="278.421" width="4" height="4" transform="rotate(90 190.579 278.421)" fill="#FFDADA"/><rect x="217.579" y="188.421" width="4" height="4" transform="rotate(90 217.579 188.421)" fill="#FFDADA"/><rect x="217.579" y="197.421" width="4" height="4" transform="rotate(90 217.579 197.421)" fill="#FFDADA"/><rect x="217.579" y="206.421" width="4" height="4" transform="rotate(90 217.579 206.421)" fill="#FFDADA"/><rect x="217.579" y="215.421" width="4" height="4" transform="rotate(90 217.579 215.421)" fill="#FFDADA"/><rect x="217.579" y="224.421" width="4" height="4" transform="rotate(90 217.579 224.421)" fill="#FFDADA"/><rect x="217.579" y="233.421" width="4" height="4" transform="rotate(90 217.579 233.421)" fill="#FFDADA"/><rect x="217.579" y="242.421" width="4" height="4" transform="rotate(90 217.579 242.421)" fill="#FFDADA"/><rect x="217.579" y="251.421" width="4" height="4" transform="rotate(90 217.579 251.421)" fill="#FFDADA"/><rect x="217.579" y="260.421" width="4" height="4" transform="rotate(90 217.579 260.421)" fill="#FFDADA"/><rect x="217.579" y="269.421" width="4" height="4" transform="rotate(90 217.579 269.421)" fill="#FFDADA"/><rect x="217.579" y="278.421" width="4" height="4" transform="rotate(90 217.579 278.421)" fill="#FFDADA"/><rect x="181.579" y="188.421" width="4" height="4" transform="rotate(90 181.579 188.421)" fill="#FFDADA"/><rect x="181.579" y="197.421" width="4" height="4" transform="rotate(90 181.579 197.421)" fill="#FFDADA"/><rect x="181.579" y="206.421" width="4" height="4" transform="rotate(90 181.579 206.421)" fill="#FFDADA"/><rect x="181.579" y="215.421" width="4" height="4" transform="rotate(90 181.579 215.421)" fill="#FFDADA"/><rect x="181.579" y="224.421" width="4" height="4" transform="rotate(90 181.579 224.421)" fill="#FFDADA"/><rect x="181.579" y="233.421" width="4" height="4" transform="rotate(90 181.579 233.421)" fill="#FFDADA"/><rect x="181.579" y="242.421" width="4" height="4" transform="rotate(90 181.579 242.421)" fill="#FFDADA"/><rect x="181.579" y="251.421" width="4" height="4" transform="rotate(90 181.579 251.421)" fill="#FFDADA"/><rect x="181.579" y="260.421" width="4" height="4" transform="rotate(90 181.579 260.421)" fill="#FFDADA"/><rect x="181.579" y="269.421" width="4" height="4" transform="rotate(90 181.579 269.421)" fill="#FFDADA"/><rect x="181.579" y="278.421" width="4" height="4" transform="rotate(90 181.579 278.421)" fill="#FFDADA"/><rect x="208.579" y="188.421" width="4" height="4" transform="rotate(90 208.579 188.421)" fill="#FFDADA"/><rect x="208.579" y="197.421" width="4" height="4" transform="rotate(90 208.579 197.421)" fill="#FFDADA"/><rect x="208.579" y="206.421" width="4" height="4" transform="rotate(90 208.579 206.421)" fill="#FFDADA"/><rect x="208.579" y="215.421" width="4" height="4" transform="rotate(90 208.579 215.421)" fill="#FFDADA"/><rect x="208.579" y="224.421" width="4" height="4" transform="rotate(90 208.579 224.421)" fill="#FFDADA"/><rect x="208.579" y="233.421" width="4" height="4" transform="rotate(90 208.579 233.421)" fill="#FFDADA"/><rect x="208.579" y="242.421" width="4" height="4" transform="rotate(90 208.579 242.421)" fill="#FFDADA"/><rect x="208.579" y="251.421" width="4" height="4" transform="rotate(90 208.579 251.421)" fill="#FFDADA"/><rect x="208.579" y="260.421" width="4" height="4" transform="rotate(90 208.579 260.421)" fill="#FFDADA"/><rect x="208.579" y="269.421" width="4" height="4" transform="rotate(90 208.579 269.421)" fill="#FFDADA"/><rect x="208.579" y="278.421" width="4" height="4" transform="rotate(90 208.579 278.421)" fill="#FFDADA"/><rect x="172.579" y="188.421" width="4" height="4" transform="rotate(90 172.579 188.421)" fill="#FFDADA"/><rect x="172.579" y="197.421" width="4" height="4" transform="rotate(90 172.579 197.421)" fill="#FFDADA"/><rect x="172.579" y="206.421" width="4" height="4" transform="rotate(90 172.579 206.421)" fill="#FFDADA"/><rect x="172.579" y="215.421" width="4" height="4" transform="rotate(90 172.579 215.421)" fill="#FFDADA"/><rect x="172.579" y="224.421" width="4" height="4" transform="rotate(90 172.579 224.421)" fill="#FFDADA"/><rect x="172.579" y="233.421" width="4" height="4" transform="rotate(90 172.579 233.421)" fill="#FFDADA"/><rect x="172.579" y="242.421" width="4" height="4" transform="rotate(90 172.579 242.421)" fill="#FFDADA"/><rect x="172.579" y="251.421" width="4" height="4" transform="rotate(90 172.579 251.421)" fill="#FFDADA"/><rect x="172.579" y="260.421" width="4" height="4" transform="rotate(90 172.579 260.421)" fill="#FFDADA"/><rect x="172.579" y="269.421" width="4" height="4" transform="rotate(90 172.579 269.421)" fill="#FFDADA"/><rect x="172.579" y="278.421" width="4" height="4" transform="rotate(90 172.579 278.421)" fill="#FFDADA"/><rect x="253.579" y="188.421" width="4" height="4" transform="rotate(90 253.579 188.421)" fill="#FFDADA"/><rect x="253.579" y="197.421" width="4" height="4" transform="rotate(90 253.579 197.421)" fill="#FFDADA"/><rect x="253.579" y="206.421" width="4" height="4" transform="rotate(90 253.579 206.421)" fill="#FFDADA"/><rect x="253.579" y="215.421" width="4" height="4" transform="rotate(90 253.579 215.421)" fill="#FFDADA"/><rect x="253.579" y="224.421" width="4" height="4" transform="rotate(90 253.579 224.421)" fill="#FFDADA"/><rect x="253.579" y="233.421" width="4" height="4" transform="rotate(90 253.579 233.421)" fill="#FFDADA"/><rect x="253.579" y="242.421" width="4" height="4" transform="rotate(90 253.579 242.421)" fill="#FFDADA"/><rect x="253.579" y="251.421" width="4" height="4" transform="rotate(90 253.579 251.421)" fill="#FFDADA"/><rect x="253.579" y="260.421" width="4" height="4" transform="rotate(90 253.579 260.421)" fill="#FFDADA"/><rect x="253.579" y="269.421" width="4" height="4" transform="rotate(90 253.579 269.421)" fill="#FFDADA"/><rect x="253.579" y="278.421" width="4" height="4" transform="rotate(90 253.579 278.421)" fill="#FFDADA"/><rect x="244.579" y="188.421" width="4" height="4" transform="rotate(90 244.579 188.421)" fill="#FFDADA"/><rect x="244.579" y="197.421" width="4" height="4" transform="rotate(90 244.579 197.421)" fill="#FFDADA"/><rect x="244.579" y="206.421" width="4" height="4" transform="rotate(90 244.579 206.421)" fill="#FFDADA"/><rect x="244.579" y="215.421" width="4" height="4" transform="rotate(90 244.579 215.421)" fill="#FFDADA"/><rect x="244.579" y="224.421" width="4" height="4" transform="rotate(90 244.579 224.421)" fill="#FFDADA"/><rect x="244.579" y="233.421" width="4" height="4" transform="rotate(90 244.579 233.421)" fill="#FFDADA"/><rect x="244.579" y="242.421" width="4" height="4" transform="rotate(90 244.579 242.421)" fill="#FFDADA"/><rect x="244.579" y="251.421" width="4" height="4" transform="rotate(90 244.579 251.421)" fill="#FFDADA"/><rect x="244.579" y="260.421" width="4" height="4" transform="rotate(90 244.579 260.421)" fill="#FFDADA"/><rect x="244.579" y="269.421" width="4" height="4" transform="rotate(90 244.579 269.421)" fill="#FFDADA"/><rect x="244.579" y="278.421" width="4" height="4" transform="rotate(90 244.579 278.421)" fill="#FFDADA"/><rect x="235.579" y="188.421" width="4" height="4" transform="rotate(90 235.579 188.421)" fill="#FFDADA"/><rect x="235.579" y="197.421" width="4" height="4" transform="rotate(90 235.579 197.421)" fill="#FFDADA"/><rect x="235.579" y="206.421" width="4" height="4" transform="rotate(90 235.579 206.421)" fill="#FFDADA"/><rect x="235.579" y="215.421" width="4" height="4" transform="rotate(90 235.579 215.421)" fill="#FFDADA"/><rect x="235.579" y="224.421" width="4" height="4" transform="rotate(90 235.579 224.421)" fill="#FFDADA"/><rect x="235.579" y="233.421" width="4" height="4" transform="rotate(90 235.579 233.421)" fill="#FFDADA"/><rect x="235.579" y="242.421" width="4" height="4" transform="rotate(90 235.579 242.421)" fill="#FFDADA"/><rect x="235.579" y="251.421" width="4" height="4" transform="rotate(90 235.579 251.421)" fill="#FFDADA"/><rect x="235.579" y="260.421" width="4" height="4" transform="rotate(90 235.579 260.421)" fill="#FFDADA"/><rect x="235.579" y="269.421" width="4" height="4" transform="rotate(90 235.579 269.421)" fill="#FFDADA"/><rect x="235.579" y="278.421" width="4" height="4" transform="rotate(90 235.579 278.421)" fill="#FFDADA"/><rect x="199.579" y="188.421" width="4" height="4" transform="rotate(90 199.579 188.421)" fill="#FFDADA"/><rect x="199.579" y="197.421" width="4" height="4" transform="rotate(90 199.579 197.421)" fill="#FFDADA"/><rect x="199.579" y="206.421" width="4" height="4" transform="rotate(90 199.579 206.421)" fill="#FFDADA"/><rect x="199.579" y="215.421" width="4" height="4" transform="rotate(90 199.579 215.421)" fill="#FFDADA"/><rect x="199.579" y="224.421" width="4" height="4" transform="rotate(90 199.579 224.421)" fill="#FFDADA"/><rect x="199.579" y="233.421" width="4" height="4" transform="rotate(90 199.579 233.421)" fill="#FFDADA"/><rect x="199.579" y="242.421" width="4" height="4" transform="rotate(90 199.579 242.421)" fill="#FFDADA"/><rect x="199.579" y="251.421" width="4" height="4" transform="rotate(90 199.579 251.421)" fill="#FFDADA"/><rect x="199.579" y="260.421" width="4" height="4" transform="rotate(90 199.579 260.421)" fill="#FFDADA"/><rect x="199.579" y="269.421" width="4" height="4" transform="rotate(90 199.579 269.421)" fill="#FFDADA"/><rect x="199.579" y="278.421" width="4" height="4" transform="rotate(90 199.579 278.421)" fill="#FFDADA"/></svg>