<svg width="237" height="120" fill="none" xmlns="http://www.w3.org/2000/svg"><rect x="237" y="81" width="6" height="3" transform="rotate(-180 237 81)" fill="#FFDADA"/><rect x="237" y="29" width="6" height="3" transform="rotate(-180 237 29)" fill="#FFDADA"/><rect x="237" y="68" width="6" height="3" transform="rotate(-180 237 68)" fill="#FFDADA"/><rect x="237" y="16" width="6" height="3" transform="rotate(-180 237 16)" fill="#FFDADA"/><rect x="237" y="55" width="6" height="3" transform="rotate(-180 237 55)" fill="#FFDADA"/><rect x="237" y="3" width="6" height="3" transform="rotate(-180 237 3)" fill="#FFDADA"/><rect x="237" y="120" width="6" height="3" transform="rotate(-180 237 120)" fill="#FFDADA"/><rect x="237" y="107" width="6" height="3" transform="rotate(-180 237 107)" fill="#FFDADA"/><rect x="237" y="94" width="6" height="3" transform="rotate(-180 237 94)" fill="#FFDADA"/><rect x="237" y="42" width="6" height="3" transform="rotate(-180 237 42)" fill="#FFDADA"/><rect x="216" y="81" width="6" height="3" transform="rotate(-180 216 81)" fill="#FFDADA"/><rect x="216" y="29" width="6" height="3" transform="rotate(-180 216 29)" fill="#FFDADA"/><rect x="216" y="68" width="6" height="3" transform="rotate(-180 216 68)" fill="#FFDADA"/><rect x="216" y="16" width="6" height="3" transform="rotate(-180 216 16)" fill="#FFDADA"/><rect x="216" y="55" width="6" height="3" transform="rotate(-180 216 55)" fill="#FFDADA"/><rect x="216" y="3" width="6" height="3" transform="rotate(-180 216 3)" fill="#FFDADA"/><rect x="216" y="120" width="6" height="3" transform="rotate(-180 216 120)" fill="#FFDADA"/><rect x="216" y="107" width="6" height="3" transform="rotate(-180 216 107)" fill="#FFDADA"/><rect x="216" y="94" width="6" height="3" transform="rotate(-180 216 94)" fill="#FFDADA"/><rect x="216" y="42" width="6" height="3" transform="rotate(-180 216 42)" fill="#FFDADA"/><rect x="195" y="81" width="6" height="3" transform="rotate(-180 195 81)" fill="#FFDADA"/><rect x="195" y="29" width="6" height="3" transform="rotate(-180 195 29)" fill="#FFDADA"/><rect x="195" y="68" width="6" height="3" transform="rotate(-180 195 68)" fill="#FFDADA"/><rect x="195" y="16" width="6" height="3" transform="rotate(-180 195 16)" fill="#FFDADA"/><rect x="195" y="55" width="6" height="3" transform="rotate(-180 195 55)" fill="#FFDADA"/><rect x="195" y="3" width="6" height="3" transform="rotate(-180 195 3)" fill="#FFDADA"/><rect x="195" y="120" width="6" height="3" transform="rotate(-180 195 120)" fill="#FFDADA"/><rect x="195" y="107" width="6" height="3" transform="rotate(-180 195 107)" fill="#FFDADA"/><rect x="195" y="94" width="6" height="3" transform="rotate(-180 195 94)" fill="#FFDADA"/><rect x="195" y="42" width="6" height="3" transform="rotate(-180 195 42)" fill="#FFDADA"/><rect x="111" y="81" width="6" height="3" transform="rotate(-180 111 81)" fill="#FFDADA"/><rect x="111" y="29" width="6" height="3" transform="rotate(-180 111 29)" fill="#FFDADA"/><rect x="111" y="68" width="6" height="3" transform="rotate(-180 111 68)" fill="#FFDADA"/><rect x="111" y="16" width="6" height="3" transform="rotate(-180 111 16)" fill="#FFDADA"/><rect x="111" y="55" width="6" height="3" transform="rotate(-180 111 55)" fill="#FFDADA"/><rect x="111" y="3" width="6" height="3" transform="rotate(-180 111 3)" fill="#FFDADA"/><rect x="111" y="120" width="6" height="3" transform="rotate(-180 111 120)" fill="#FFDADA"/><rect x="111" y="107" width="6" height="3" transform="rotate(-180 111 107)" fill="#FFDADA"/><rect x="111" y="94" width="6" height="3" transform="rotate(-180 111 94)" fill="#FFDADA"/><rect x="111" y="42" width="6" height="3" transform="rotate(-180 111 42)" fill="#FFDADA"/><rect x="90" y="81" width="6" height="3" transform="rotate(-180 90 81)" fill="#FFDADA"/><rect x="90" y="29" width="6" height="3" transform="rotate(-180 90 29)" fill="#FFDADA"/><rect x="90" y="68" width="6" height="3" transform="rotate(-180 90 68)" fill="#FFDADA"/><rect x="90" y="16" width="6" height="3" transform="rotate(-180 90 16)" fill="#FFDADA"/><rect x="90" y="55" width="6" height="3" transform="rotate(-180 90 55)" fill="#FFDADA"/><rect x="90" y="3" width="6" height="3" transform="rotate(-180 90 3)" fill="#FFDADA"/><rect x="90" y="120" width="6" height="3" transform="rotate(-180 90 120)" fill="#FFDADA"/><rect x="90" y="107" width="6" height="3" transform="rotate(-180 90 107)" fill="#FFDADA"/><rect x="90" y="94" width="6" height="3" transform="rotate(-180 90 94)" fill="#FFDADA"/><rect x="90" y="42" width="6" height="3" transform="rotate(-180 90 42)" fill="#FFDADA"/><rect x="69" y="81" width="6" height="3" transform="rotate(-180 69 81)" fill="#FFDADA"/><rect x="69" y="29" width="6" height="3" transform="rotate(-180 69 29)" fill="#FFDADA"/><rect x="69" y="68" width="6" height="3" transform="rotate(-180 69 68)" fill="#FFDADA"/><rect x="69" y="16" width="6" height="3" transform="rotate(-180 69 16)" fill="#FFDADA"/><rect x="69" y="55" width="6" height="3" transform="rotate(-180 69 55)" fill="#FFDADA"/><rect x="69" y="3" width="6" height="3" transform="rotate(-180 69 3)" fill="#FFDADA"/><rect x="69" y="120" width="6" height="3" transform="rotate(-180 69 120)" fill="#FFDADA"/><rect x="69" y="107" width="6" height="3" transform="rotate(-180 69 107)" fill="#FFDADA"/><rect x="69" y="94" width="6" height="3" transform="rotate(-180 69 94)" fill="#FFDADA"/><rect x="69" y="42" width="6" height="3" transform="rotate(-180 69 42)" fill="#FFDADA"/><rect x="174" y="81" width="6" height="3" transform="rotate(-180 174 81)" fill="#FFDADA"/><rect x="174" y="29" width="6" height="3" transform="rotate(-180 174 29)" fill="#FFDADA"/><rect x="174" y="68" width="6" height="3" transform="rotate(-180 174 68)" fill="#FFDADA"/><rect x="174" y="16" width="6" height="3" transform="rotate(-180 174 16)" fill="#FFDADA"/><rect x="174" y="55" width="6" height="3" transform="rotate(-180 174 55)" fill="#FFDADA"/><rect x="174" y="3" width="6" height="3" transform="rotate(-180 174 3)" fill="#FFDADA"/><rect x="174" y="120" width="6" height="3" transform="rotate(-180 174 120)" fill="#FFDADA"/><rect x="174" y="107" width="6" height="3" transform="rotate(-180 174 107)" fill="#FFDADA"/><rect x="174" y="94" width="6" height="3" transform="rotate(-180 174 94)" fill="#FFDADA"/><rect x="174" y="42" width="6" height="3" transform="rotate(-180 174 42)" fill="#FFDADA"/><rect x="153" y="81" width="6" height="3" transform="rotate(-180 153 81)" fill="#FFDADA"/><rect x="153" y="29" width="6" height="3" transform="rotate(-180 153 29)" fill="#FFDADA"/><rect x="153" y="68" width="6" height="3" transform="rotate(-180 153 68)" fill="#FFDADA"/><rect x="153" y="16" width="6" height="3" transform="rotate(-180 153 16)" fill="#FFDADA"/><rect x="153" y="55" width="6" height="3" transform="rotate(-180 153 55)" fill="#FFDADA"/><rect x="153" y="3" width="6" height="3" transform="rotate(-180 153 3)" fill="#FFDADA"/><rect x="153" y="120" width="6" height="3" transform="rotate(-180 153 120)" fill="#FFDADA"/><rect x="153" y="107" width="6" height="3" transform="rotate(-180 153 107)" fill="#FFDADA"/><rect x="153" y="94" width="6" height="3" transform="rotate(-180 153 94)" fill="#FFDADA"/><rect x="153" y="42" width="6" height="3" transform="rotate(-180 153 42)" fill="#FFDADA"/><rect x="132" y="81" width="6" height="3" transform="rotate(-180 132 81)" fill="#FFDADA"/><rect x="132" y="29" width="6" height="3" transform="rotate(-180 132 29)" fill="#FFDADA"/><rect x="132" y="68" width="6" height="3" transform="rotate(-180 132 68)" fill="#FFDADA"/><rect x="132" y="16" width="6" height="3" transform="rotate(-180 132 16)" fill="#FFDADA"/><rect x="132" y="55" width="6" height="3" transform="rotate(-180 132 55)" fill="#FFDADA"/><rect x="132" y="3" width="6" height="3" transform="rotate(-180 132 3)" fill="#FFDADA"/><rect x="132" y="120" width="6" height="3" transform="rotate(-180 132 120)" fill="#FFDADA"/><rect x="132" y="107" width="6" height="3" transform="rotate(-180 132 107)" fill="#FFDADA"/><rect x="132" y="94" width="6" height="3" transform="rotate(-180 132 94)" fill="#FFDADA"/><rect x="132" y="42" width="6" height="3" transform="rotate(-180 132 42)" fill="#FFDADA"/><rect x="48" y="81" width="6" height="3" transform="rotate(-180 48 81)" fill="white"/><rect x="48" y="29" width="6" height="3" transform="rotate(-180 48 29)" fill="white"/><rect x="48" y="68" width="6" height="3" transform="rotate(-180 48 68)" fill="white"/><rect x="48" y="16" width="6" height="3" transform="rotate(-180 48 16)" fill="white"/><rect x="48" y="55" width="6" height="3" transform="rotate(-180 48 55)" fill="white"/><rect x="48" y="3" width="6" height="3" transform="rotate(-180 48 3)" fill="white"/><rect x="48" y="120" width="6" height="3" transform="rotate(-180 48 120)" fill="white"/><rect x="48" y="107" width="6" height="3" transform="rotate(-180 48 107)" fill="white"/><rect x="48" y="94" width="6" height="3" transform="rotate(-180 48 94)" fill="white"/><rect x="48" y="42" width="6" height="3" transform="rotate(-180 48 42)" fill="white"/><rect x="27" y="81" width="6" height="3" transform="rotate(-180 27 81)" fill="white"/><rect x="27" y="29" width="6" height="3" transform="rotate(-180 27 29)" fill="white"/><rect x="27" y="68" width="6" height="3" transform="rotate(-180 27 68)" fill="white"/><rect x="27" y="16" width="6" height="3" transform="rotate(-180 27 16)" fill="white"/><rect x="27" y="55" width="6" height="3" transform="rotate(-180 27 55)" fill="white"/><rect x="27" y="3" width="6" height="3" transform="rotate(-180 27 3)" fill="white"/><rect x="27" y="120" width="6" height="3" transform="rotate(-180 27 120)" fill="white"/><rect x="27" y="107" width="6" height="3" transform="rotate(-180 27 107)" fill="white"/><rect x="27" y="94" width="6" height="3" transform="rotate(-180 27 94)" fill="white"/><rect x="27" y="42" width="6" height="3" transform="rotate(-180 27 42)" fill="white"/><rect x="6" y="81" width="6" height="3" transform="rotate(-180 6 81)" fill="white"/><rect x="6" y="29" width="6" height="3" transform="rotate(-180 6 29)" fill="white"/><rect x="6" y="68" width="6" height="3" transform="rotate(-180 6 68)" fill="white"/><rect x="6" y="16" width="6" height="3" transform="rotate(-180 6 16)" fill="white"/><rect x="6" y="55" width="6" height="3" transform="rotate(-180 6 55)" fill="white"/><rect x="6" y="3" width="6" height="3" transform="rotate(-180 6 3)" fill="white"/><rect x="6" y="120" width="6" height="3" transform="rotate(-180 6 120)" fill="white"/><rect x="6" y="107" width="6" height="3" transform="rotate(-180 6 107)" fill="white"/><rect x="6" y="94" width="6" height="3" transform="rotate(-180 6 94)" fill="white"/><rect x="6" y="42" width="6" height="3" transform="rotate(-180 6 42)" fill="white"/></svg>