<svg width="313" height="342" fill="none" xmlns="http://www.w3.org/2000/svg"><rect x="-89" y="10" width="392" height="322" stroke="#E5E5E5" stroke-width="20"/><rect x="273" y="79" width="3" height="3" transform="rotate(-180 273 79)" fill="#E5E5E5"/><rect x="259" y="79" width="3" height="3" transform="rotate(-180 259 79)" fill="#E5E5E5"/><rect x="245" y="79" width="3" height="3" transform="rotate(-180 245 79)" fill="#E5E5E5"/><rect x="273" y="61" width="3" height="3" transform="rotate(-180 273 61)" fill="#E5E5E5"/><rect x="259" y="61" width="3" height="3" transform="rotate(-180 259 61)" fill="#E5E5E5"/><rect x="245" y="61" width="3" height="3" transform="rotate(-180 245 61)" fill="#E5E5E5"/><rect x="273" y="43" width="3" height="3" transform="rotate(-180 273 43)" fill="#E5E5E5"/><rect x="259" y="43" width="3" height="3" transform="rotate(-180 259 43)" fill="#E5E5E5"/><rect x="245" y="43" width="3" height="3" transform="rotate(-180 245 43)" fill="#E5E5E5"/><rect x="189" y="79" width="3" height="3" transform="rotate(-180 189 79)" fill="#E5E5E5"/><rect x="175" y="79" width="3" height="3" transform="rotate(-180 175 79)" fill="#E5E5E5"/><rect x="161" y="79" width="3" height="3" transform="rotate(-180 161 79)" fill="#E5E5E5"/><rect x="189" y="61" width="3" height="3" transform="rotate(-180 189 61)" fill="#E5E5E5"/><rect x="175" y="61" width="3" height="3" transform="rotate(-180 175 61)" fill="#E5E5E5"/><rect x="161" y="61" width="3" height="3" transform="rotate(-180 161 61)" fill="#E5E5E5"/><rect x="189" y="43" width="3" height="3" transform="rotate(-180 189 43)" fill="#E5E5E5"/><rect x="175" y="43" width="3" height="3" transform="rotate(-180 175 43)" fill="#E5E5E5"/><rect x="161" y="43" width="3" height="3" transform="rotate(-180 161 43)" fill="#E5E5E5"/><rect x="231" y="79" width="3" height="3" transform="rotate(-180 231 79)" fill="#E5E5E5"/><rect x="217" y="79" width="3" height="3" transform="rotate(-180 217 79)" fill="#E5E5E5"/><rect x="203" y="79" width="3" height="3" transform="rotate(-180 203 79)" fill="#E5E5E5"/><rect x="231" y="61" width="3" height="3" transform="rotate(-180 231 61)" fill="#E5E5E5"/><rect x="217" y="61" width="3" height="3" transform="rotate(-180 217 61)" fill="#E5E5E5"/><rect x="203" y="61" width="3" height="3" transform="rotate(-180 203 61)" fill="#E5E5E5"/><rect x="231" y="43" width="3" height="3" transform="rotate(-180 231 43)" fill="#E5E5E5"/><rect x="217" y="43" width="3" height="3" transform="rotate(-180 217 43)" fill="#E5E5E5"/><rect x="203" y="43" width="3" height="3" transform="rotate(-180 203 43)" fill="#E5E5E5"/><rect x="147" y="79" width="3" height="3" transform="rotate(-180 147 79)" fill="#E5E5E5"/><rect x="133" y="79" width="3" height="3" transform="rotate(-180 133 79)" fill="#E5E5E5"/><rect x="119" y="79" width="3" height="3" transform="rotate(-180 119 79)" fill="#E5E5E5"/><rect x="147" y="61" width="3" height="3" transform="rotate(-180 147 61)" fill="#E5E5E5"/><rect x="133" y="61" width="3" height="3" transform="rotate(-180 133 61)" fill="#E5E5E5"/><rect x="119" y="61" width="3" height="3" transform="rotate(-180 119 61)" fill="#E5E5E5"/><rect x="147" y="43" width="3" height="3" transform="rotate(-180 147 43)" fill="#E5E5E5"/><rect x="133" y="43" width="3" height="3" transform="rotate(-180 133 43)" fill="#E5E5E5"/><rect x="119" y="43" width="3" height="3" transform="rotate(-180 119 43)" fill="#E5E5E5"/><rect x="273" y="133" width="3" height="3" transform="rotate(-180 273 133)" fill="#E5E5E5"/><rect x="259" y="133" width="3" height="3" transform="rotate(-180 259 133)" fill="#E5E5E5"/><rect x="245" y="133" width="3" height="3" transform="rotate(-180 245 133)" fill="#E5E5E5"/><rect x="273" y="115" width="3" height="3" transform="rotate(-180 273 115)" fill="#E5E5E5"/><rect x="259" y="115" width="3" height="3" transform="rotate(-180 259 115)" fill="#E5E5E5"/><rect x="245" y="115" width="3" height="3" transform="rotate(-180 245 115)" fill="#E5E5E5"/><rect x="273" y="97" width="3" height="3" transform="rotate(-180 273 97)" fill="#E5E5E5"/><rect x="259" y="97" width="3" height="3" transform="rotate(-180 259 97)" fill="#E5E5E5"/><rect x="245" y="97" width="3" height="3" transform="rotate(-180 245 97)" fill="#E5E5E5"/><rect x="189" y="133" width="3" height="3" transform="rotate(-180 189 133)" fill="#E5E5E5"/><rect x="175" y="133" width="3" height="3" transform="rotate(-180 175 133)" fill="#E5E5E5"/><rect x="161" y="133" width="3" height="3" transform="rotate(-180 161 133)" fill="#E5E5E5"/><rect x="189" y="115" width="3" height="3" transform="rotate(-180 189 115)" fill="#E5E5E5"/><rect x="175" y="115" width="3" height="3" transform="rotate(-180 175 115)" fill="#E5E5E5"/><rect x="161" y="115" width="3" height="3" transform="rotate(-180 161 115)" fill="#E5E5E5"/><rect x="189" y="97" width="3" height="3" transform="rotate(-180 189 97)" fill="#E5E5E5"/><rect x="175" y="97" width="3" height="3" transform="rotate(-180 175 97)" fill="#E5E5E5"/><rect x="161" y="97" width="3" height="3" transform="rotate(-180 161 97)" fill="#E5E5E5"/><rect x="231" y="133" width="3" height="3" transform="rotate(-180 231 133)" fill="#E5E5E5"/><rect x="217" y="133" width="3" height="3" transform="rotate(-180 217 133)" fill="#E5E5E5"/><rect x="203" y="133" width="3" height="3" transform="rotate(-180 203 133)" fill="#E5E5E5"/><rect x="231" y="115" width="3" height="3" transform="rotate(-180 231 115)" fill="#E5E5E5"/><rect x="217" y="115" width="3" height="3" transform="rotate(-180 217 115)" fill="#E5E5E5"/><rect x="203" y="115" width="3" height="3" transform="rotate(-180 203 115)" fill="#E5E5E5"/><rect x="231" y="97" width="3" height="3" transform="rotate(-180 231 97)" fill="#E5E5E5"/><rect x="217" y="97" width="3" height="3" transform="rotate(-180 217 97)" fill="#E5E5E5"/><rect x="203" y="97" width="3" height="3" transform="rotate(-180 203 97)" fill="#E5E5E5"/><rect x="147" y="133" width="3" height="3" transform="rotate(-180 147 133)" fill="#E5E5E5"/><rect x="133" y="133" width="3" height="3" transform="rotate(-180 133 133)" fill="#E5E5E5"/><rect x="119" y="133" width="3" height="3" transform="rotate(-180 119 133)" fill="#E5E5E5"/><rect x="147" y="115" width="3" height="3" transform="rotate(-180 147 115)" fill="#E5E5E5"/><rect x="133" y="115" width="3" height="3" transform="rotate(-180 133 115)" fill="#E5E5E5"/><rect x="119" y="115" width="3" height="3" transform="rotate(-180 119 115)" fill="#E5E5E5"/><rect x="147" y="97" width="3" height="3" transform="rotate(-180 147 97)" fill="#E5E5E5"/><rect x="133" y="97" width="3" height="3" transform="rotate(-180 133 97)" fill="#E5E5E5"/><rect x="119" y="97" width="3" height="3" transform="rotate(-180 119 97)" fill="#E5E5E5"/></svg>