<svg width="26" height="26" fill="none" xmlns="http://www.w3.org/2000/svg"><path d="M14.958 13L25.083 2.87504C25.3106 2.60934 25.4295 2.26757 25.416 1.91802C25.4025 1.56847 25.2575 1.23689 25.0102 0.989533C24.7628 0.74218 24.4313 0.597273 24.0817 0.583771C23.7322 0.57027 23.3904 0.689168 23.1247 0.916704L12.9997 11.0417L2.87469 0.902815C2.609 0.675279 2.26722 0.556382 1.91767 0.569883C1.56812 0.583385 1.23654 0.728291 0.989188 0.975644C0.741834 1.223 0.596928 1.55458 0.583426 1.90413C0.569924 2.25368 0.688822 2.59545 0.916359 2.86115L11.0414 13L0.90247 23.125C0.757079 23.2495 0.638995 23.4028 0.555629 23.5751C0.472263 23.7474 0.425415 23.9351 0.418027 24.1264C0.410639 24.3176 0.442869 24.5084 0.512695 24.6866C0.582521 24.8648 0.688435 25.0267 0.823789 25.1621C0.959143 25.2974 1.12101 25.4033 1.29924 25.4731C1.47747 25.543 1.66821 25.5752 1.85949 25.5678C2.05077 25.5604 2.23845 25.5136 2.41076 25.4302C2.58307 25.3468 2.73629 25.2288 2.8608 25.0834L12.9997 14.9584L23.1247 25.0834C23.3904 25.3109 23.7322 25.4298 24.0817 25.4163C24.4313 25.4028 24.7628 25.2579 25.0102 25.0105C25.2575 24.7632 25.4025 24.4316 25.416 24.0821C25.4295 23.7325 25.3106 23.3907 25.083 23.125L14.958 13Z" fill="#9FA2B4"/></svg>