<svg width="245" height="28" fill="none" xmlns="http://www.w3.org/2000/svg"><g clip-path="url(#clip0_1_976)"><path d="M29.4016 23.8933V0.453125H39.4849C42.4833 0.453125 44.8643 1.18305 46.628 2.64291C48.3917 4.10276 49.2727 6.12878 49.271 8.72097C49.271 10.5185 48.8305 12.0604 47.9495 13.3468C47.0673 14.634 45.8219 15.6322 44.3703 16.2157C42.8634 16.8428 41.1253 17.1564 39.1558 17.1564H35.921V23.8844L29.4016 23.8933ZM35.921 12.1104H39.0244C40.1852 12.1104 41.0968 11.8294 41.7592 11.2675C42.4217 10.7055 42.7524 9.94048 42.7516 8.97232C42.7516 7.96947 42.4208 7.19849 41.7592 6.65941C41.0976 6.12032 40.175 5.85077 38.9913 5.85077H35.921V12.1104Z" fill="black"/><path d="M51.2251 12.1828C51.2196 10.5547 51.5522 8.94312 52.2021 7.44905C52.8233 5.9943 53.7246 4.67465 54.8553 3.56457C56.0198 2.44273 57.3934 1.55827 58.8988 0.96095C62.1298 -0.31934 65.7308 -0.31934 68.9617 0.96095C70.4555 1.55251 71.8181 2.43022 72.9721 3.54426C74.0939 4.65107 74.984 5.96836 75.5908 7.41985C76.2303 8.92802 76.5558 10.5496 76.5474 12.1866C76.5533 13.8156 76.2215 15.4284 75.5729 16.9241C74.9558 18.3782 74.0578 19.6975 72.93 20.8073C71.7699 21.9255 70.4015 22.8073 68.9017 23.4033C67.3056 24.0502 65.5969 24.3776 63.8735 24.3669C61.4984 24.3669 59.3419 23.8252 57.4039 22.742C55.5168 21.7084 53.9472 20.1841 52.8629 18.3319C51.7697 16.4667 51.2037 14.342 51.2251 12.1828ZM57.909 12.1828C57.909 13.9177 58.4783 15.4072 59.617 16.6512C60.7556 17.8953 62.1953 18.5169 63.936 18.516C65.6988 18.516 67.1385 17.9024 68.255 16.6753C69.3716 15.4482 69.9298 13.9507 69.9298 12.1828C69.9298 10.4487 69.3605 8.95968 68.2219 7.71563C67.0832 6.47158 65.6338 5.84998 63.8735 5.85083C62.1336 5.85083 60.705 6.46439 59.5876 7.69151C58.4702 8.91863 57.9107 10.4157 57.909 12.1828Z" fill="black"/><path d="M79.9634 23.8933V0.453125H96.9104V6.1656H86.4827V23.8933H79.9634Z" fill="black"/><path d="M99.6695 23.8933V0.453125H109.746C112.746 0.453125 115.127 1.18305 116.889 2.64291C118.652 4.10276 119.534 6.12878 119.534 8.72097C119.534 10.5185 119.093 12.0604 118.211 13.3468C117.332 14.634 116.089 15.6335 114.641 16.2195C113.134 16.8466 111.396 17.1602 109.426 17.1602H106.189V23.8882L99.6695 23.8933ZM106.189 12.1104H109.292C110.453 12.1104 111.365 11.8294 112.027 11.2675C112.689 10.7055 113.021 9.94048 113.021 8.97232C113.021 7.96947 112.689 7.19849 112.027 6.65941C111.365 6.12032 110.442 5.85077 109.259 5.85077H106.189V12.1104Z" fill="black"/><path d="M120.41 23.8933L130.444 0.294434H136.733L146.75 23.8933H139.755L138.031 19.7041H128.949L127.274 23.8933H120.41ZM130.87 14.6594H136.157L133.529 7.99104L130.87 14.6594Z" fill="black"/><path d="M149.032 23.8933V0.453125H155.929L161.542 9.52326L167.154 0.453125H174.082V23.8933H167.562V10.4373L161.552 19.6064H161.424L155.429 10.5033V23.8933H149.032Z" fill="black"/><path d="M176.901 6.1656V0.453125H197.565V6.1656H190.488V23.8933H183.968V6.1656H176.901Z" fill="black"/><path d="M200.399 23.8933V0.453125H219.333V5.98153H206.853V9.52707H218.151V14.6594H206.853V18.3687H219.498V23.8933H200.399Z" fill="black"/><path d="M221.124 23.8933L229.186 11.9796L221.452 0.453125H228.956L233.127 7.0542L237.336 0.453125H244.661L236.926 11.9098L245.003 23.8933H237.498L232.98 16.8289L228.447 23.8895L221.124 23.8933Z" fill="black"/><path d="M4.15576 23.8894V0.460693H25.2241V23.8894H18.7073V6.16555H10.6713V23.8894H4.15576Z" fill="#E60000"/><path d="M19.4114 25.0917V26.356H1.65185V8.70447H2.9797V7.0542H1.65185H0V8.70447V26.356V27.9999H1.65185H19.4114H21.0633V26.356V25.0917H19.4114Z" fill="black"/></g><defs><clipPath id="clip0_1_976"><rect width="245" height="28" fill="white"/></clipPath></defs></svg>