<svg width="219" height="25" fill="none" xmlns="http://www.w3.org/2000/svg"><g clip-path="url(#clip0_1_175)"><path d="M26.2514 21.3335V0.404785H35.2543C37.9315 0.404785 40.0574 1.05651 41.6321 2.35995C43.2068 3.66339 43.9934 5.47234 43.9919 7.78679C43.9919 9.39173 43.5986 10.7685 42.812 11.917C42.0244 13.0662 40.9124 13.9576 39.6163 14.4785C38.2709 15.0385 36.7189 15.3184 34.9605 15.3184H32.0723V21.3256L26.2514 21.3335ZM32.0723 10.813H34.8432C35.8796 10.813 36.6935 10.5622 37.285 10.0604C37.8764 9.55872 38.1718 8.87564 38.171 8.01121C38.171 7.11581 37.8757 6.42744 37.285 5.94611C36.6943 5.46478 35.8705 5.22412 34.8136 5.22412H32.0723V10.813Z" fill="black"/><path d="M45.7367 10.8773C45.7318 9.4237 46.0288 7.98476 46.6091 6.65077C47.1637 5.35189 47.9685 4.17363 48.978 3.18248C50.0177 2.18085 51.2441 1.39115 52.5883 0.857826C55.4731 -0.285291 58.6882 -0.285291 61.573 0.857826C62.9067 1.38601 64.1233 2.16967 65.1537 3.16435C66.1553 4.15258 66.95 5.32873 67.4918 6.6247C68.0628 7.97128 68.3534 9.41915 68.346 10.8807C68.3512 12.3352 68.055 13.7752 67.4759 15.1107C66.9248 16.4089 66.1231 17.5869 65.1161 18.5778C64.0803 19.5762 62.8586 20.3635 61.5195 20.8957C60.0943 21.4732 58.5687 21.7655 57.03 21.7559C54.9093 21.7559 52.9839 21.2724 51.2535 20.3052C49.5686 19.3823 48.1672 18.0214 47.1991 16.3676C46.223 14.7023 45.7177 12.8052 45.7367 10.8773ZM51.7045 10.8773C51.7045 12.4263 52.2128 13.7562 53.2295 14.867C54.2461 15.9777 55.5316 16.5327 57.0858 16.532C58.6597 16.532 59.9451 15.9842 60.942 14.8885C61.939 13.7929 62.4374 12.4558 62.4374 10.8773C62.4374 9.32906 61.9291 7.99955 60.9124 6.88879C59.8958 5.77803 58.6016 5.22303 57.03 5.22379C55.4765 5.22379 54.201 5.77161 53.2033 6.86725C52.2056 7.9629 51.706 9.29959 51.7045 10.8773Z" fill="black"/><path d="M71.3959 21.3335V0.404785H86.5272V5.50521H77.2167V21.3335H71.3959Z" fill="black"/><path d="M88.9906 21.3335V0.404785H97.9878C100.666 0.404785 102.792 1.05651 104.366 2.35995C105.94 3.66339 106.726 5.47234 106.726 7.78679C106.726 9.39173 106.333 10.7685 105.545 11.917C104.76 13.0663 103.651 13.9587 102.358 14.4819C101.012 15.0419 99.4604 15.3218 97.7019 15.3218H94.8114V21.329L88.9906 21.3335ZM94.8114 10.813H97.5823C98.6187 10.813 99.4327 10.5622 100.024 10.0604C100.616 9.55872 100.911 8.87564 100.911 8.01121C100.911 7.11581 100.616 6.42744 100.024 5.94611C99.4327 5.46478 98.6089 5.22412 97.5527 5.22412H94.8114V10.813Z" fill="black"/><path d="M107.509 21.3333L116.467 0.262939H122.083L131.027 21.3333H124.781L123.242 17.593H115.133L113.637 21.3333H107.509ZM116.848 13.0888H121.569L119.222 7.13491L116.848 13.0888Z" fill="black"/><path d="M133.065 21.3335V0.404785H139.222L144.234 8.50312L149.245 0.404785H155.43V21.3335H149.609V9.31919L144.243 17.5059H144.129L138.776 9.37813V21.3335H133.065Z" fill="black"/><path d="M157.947 5.50521V0.404785H176.397V5.50521H170.078V21.3335H164.258V5.50521H157.947Z" fill="black"/><path d="M178.928 21.3335V0.404785H195.833V5.34086H184.69V8.50652H194.778V13.089H184.69V16.4008H195.98V21.3335H178.928Z" fill="black"/><path d="M197.432 21.3335L204.63 10.6963L197.725 0.404785H204.425L208.149 6.2986L211.908 0.404785H218.447L211.541 10.634L218.752 21.3335H212.052L208.018 15.026L203.971 21.3301L197.432 21.3335Z" fill="black"/><path d="M3.71045 21.3299V0.411377H22.5215V21.3299H16.7029V5.505H9.5279V21.3299H3.71045Z" fill="black"/><path d="M17.3316 22.4032V23.5321H1.47486V7.7718H2.66045V6.29834H1.47486H0V7.7718V23.5321V24.9999H1.47486H17.3316H18.8065V23.5321V22.4032H17.3316Z" fill="black"/></g><defs><clipPath id="clip0_1_175"><rect width="218.75" height="25" fill="white"/></clipPath></defs></svg>