<svg width="10" height="16" fill="none" xmlns="http://www.w3.org/2000/svg"><path d="M8.56726 0H1.434C0.839717 0 0.353317 0.485943 0.353317 1.08069V14.9189C0.353317 15.5136 0.839717 16 1.434 16H8.56726C9.16155 16 9.64795 15.5145 9.64795 14.9193V1.08069C9.64795 0.485943 9.16155 0 8.56726 0ZM3.8596 0.778971H6.14166C6.21389 0.778971 6.2724 0.837486 6.2724 0.910171C6.2724 0.9824 6.21389 1.04091 6.14166 1.04091H3.8596C3.78737 1.04091 3.72886 0.9824 3.72886 0.910171C3.72886 0.837486 3.78737 0.778971 3.8596 0.778971ZM5.00063 15.4597C4.70212 15.4597 4.46029 15.2178 4.46029 14.9189C4.46029 14.6199 4.70212 14.3785 5.00063 14.3785C5.29915 14.3785 5.54097 14.6199 5.54097 14.9189C5.54097 15.2178 5.29915 15.4597 5.00063 15.4597ZM8.89595 14H1.10532V1.71383H8.89595V14Z" fill="#E60000"/></svg>